<?xml version="1.0" standalone="no"?>
<!DOCTYPE svg PUBLIC "-//W3C//DTD SVG 20010904//EN"
 "http://www.w3.org/TR/2001/REC-SVG-20010904/DTD/svg10.dtd">
<svg version="1.0" xmlns="http://www.w3.org/2000/svg"
 width="565.000000pt" height="565.000000pt" viewBox="0 0 565.000000 565.000000"
 preserveAspectRatio="xMidYMid meet">
<metadata>
Created by potrace 1.14, written by Peter Selinger 2001-2017
</metadata>
<g transform="translate(0.000000,565.000000) scale(0.100000,-0.100000)"
fill="#000000" stroke="none">
<path d="M100 5629 c0 -11 5 -17 10 -14 6 3 10 13 10 21 0 8 -4 14 -10 14 -5
0 -10 -9 -10 -21z"/>
<path d="M1313 5487 c-1 -89 -5 -197 -9 -241 -4 -50 -3 -76 3 -73 14 9 24 156
23 310 -1 189 -15 192 -17 4z"/>
<path d="M1383 5634 c-3 -8 -1 -43 4 -77 l10 -62 2 55 c1 30 4 65 7 78 7 25
-13 31 -23 6z"/>
<path d="M1497 5628 c-13 -52 -19 -206 -9 -212 7 -4 12 22 16 71 4 43 8 97 10
121 4 44 -8 58 -17 20z"/>
<path d="M1615 5603 c-3 -27 -7 -63 -10 -80 -2 -18 0 -33 5 -33 8 0 14 36 24
133 5 48 -13 29 -19 -20z"/>
<path d="M1650 5639 c0 -5 5 -7 10 -4 6 3 10 8 10 11 0 2 -4 4 -10 4 -5 0 -10
-5 -10 -11z"/>
<path d="M1752 5625 c0 -16 2 -22 5 -12 2 9 2 23 0 30 -3 6 -5 -1 -5 -18z"/>
<path d="M1802 5603 c-1 -27 -4 -66 -8 -88 -4 -29 -3 -37 5 -29 6 6 17 45 25
87 12 71 12 77 -4 77 -14 0 -18 -9 -18 -47z"/>
<path d="M1880 5640 c0 -5 5 -10 11 -10 5 0 7 5 4 10 -3 6 -8 10 -11 10 -2 0
-4 -4 -4 -10z"/>
<path d="M2159 5573 c0 -43 -2 -111 -3 -151 -2 -40 1 -75 6 -78 4 -3 8 21 8
53 0 32 3 102 7 156 4 70 3 97 -5 97 -8 0 -12 -26 -13 -77z"/>
<path d="M2231 5640 c-1 -8 -4 -28 -6 -45 -2 -16 -6 -43 -9 -60 -3 -16 -2 -37
3 -44 15 -23 23 23 18 99 -2 36 -4 58 -6 50z"/>
<path d="M2316 5635 c4 -8 10 -15 15 -15 5 0 9 7 9 15 0 8 -7 15 -15 15 -9 0
-12 -6 -9 -15z"/>
<path d="M2410 5634 c0 -19 28 -71 54 -99 19 -20 19 -20 12 7 -3 14 -9 34 -13
45 -6 16 -5 16 10 4 21 -17 25 -14 33 27 5 25 3 32 -10 32 -9 0 -16 -8 -17
-17 0 -11 -3 -13 -6 -5 -2 6 -11 12 -18 12 -7 0 -16 -6 -18 -12 -3 -8 -6 -6
-6 5 -1 21 -21 23 -21 1z"/>
<path d="M2589 5553 c0 -54 -2 -111 -3 -128 -1 -16 -3 -71 -4 -120 l-2 -91
-32 -12 c-20 -7 -36 -8 -41 -3 -6 6 -16 3 -26 -9 -9 -11 -28 -22 -43 -25 -21
-5 -27 -3 -33 15 -9 30 16 121 41 149 24 26 22 46 -7 62 -11 5 -19 14 -19 20
0 6 7 6 19 -1 11 -5 28 -10 38 -10 15 1 12 6 -12 27 -21 18 -30 36 -30 56 0
17 -6 32 -14 35 -10 3 -12 -1 -8 -19 3 -12 2 -28 -4 -35 -6 -7 -12 -63 -14
-126 -5 -127 -10 -187 -16 -192 -2 -2 -16 -6 -30 -9 -23 -6 -27 -3 -32 21 -3
15 -1 50 4 77 9 50 0 112 -16 107 -5 -1 -8 -53 -6 -115 1 -110 -6 -146 -28
-133 -7 4 -11 41 -11 93 0 48 -2 84 -4 82 -2 -2 -7 -46 -10 -97 -5 -92 -17
-127 -41 -118 -7 2 -28 -5 -46 -17 -59 -36 -103 -57 -121 -57 -10 0 -18 -4
-18 -10 0 -5 -7 -10 -15 -10 -17 0 -21 35 -5 45 6 3 11 16 11 28 1 17 3 16 9
-8 7 -26 8 -25 7 14 -1 28 -7 46 -16 49 -8 3 -11 0 -7 -7 5 -7 1 -9 -8 -5 -14
5 -16 -4 -16 -59 0 -55 -4 -70 -23 -89 -24 -25 -50 -43 -83 -57 -12 -5 -32
-24 -44 -41 -16 -22 -25 -28 -30 -20 -6 9 -10 7 -14 -8 -4 -11 -15 -22 -26
-25 -11 -3 -22 -18 -27 -38 -11 -39 -33 -51 -33 -17 0 14 4 71 9 129 6 57 12
167 15 244 4 136 4 138 -8 70 -7 -38 -16 -153 -20 -255 -3 -102 -9 -206 -13
-232 -6 -52 -22 -65 -24 -20 -1 15 -7 -2 -13 -38 -6 -36 -17 -76 -24 -89 -14
-23 -12 -46 7 -111 l10 -35 -3 33 c-4 47 10 39 18 -10 4 -27 3 -44 -4 -46 -5
-2 -10 -10 -10 -18 0 -8 -7 -26 -16 -39 -13 -20 -14 -28 -4 -40 10 -12 9 -20
-4 -40 -14 -22 -14 -25 -1 -25 8 0 17 11 21 25 8 34 31 52 47 36 9 -9 9 -16
-1 -31 -16 -26 -15 -30 3 -30 8 0 15 7 15 16 0 14 22 44 33 44 3 0 8 -16 11
-35 4 -19 11 -35 17 -35 6 0 7 5 4 10 -3 6 -1 10 4 10 6 0 11 -11 11 -25 0
-14 7 -28 16 -32 8 -3 13 -11 10 -19 -3 -7 2 -18 10 -24 10 -9 14 -9 14 -1 0
6 17 11 40 11 22 0 40 5 40 10 0 19 17 10 28 -15 12 -26 4 -33 -16 -13 -6 6
-13 10 -14 7 -2 -2 -11 -19 -21 -37 l-18 -32 35 17 c43 20 53 13 31 -20 -15
-24 -15 -26 5 -32 11 -4 27 -1 35 5 8 6 19 9 25 5 7 -4 25 5 41 21 16 15 32
25 35 21 3 -3 17 -1 31 4 20 8 24 7 20 -5 -8 -21 23 -29 43 -11 12 11 19 12
28 3 8 -8 15 -8 28 3 16 13 64 83 64 94 0 12 -34 3 -46 -12 -12 -17 -14 -17
-30 -1 -17 17 -16 18 18 32 45 19 98 63 98 82 0 8 5 14 10 14 6 0 10 -4 10 -9
0 -17 30 -20 45 -5 9 9 22 13 30 10 9 -3 15 0 15 9 0 9 9 15 23 15 12 0 40 9
61 21 34 18 40 19 61 5 16 -11 25 -12 33 -4 8 8 16 8 27 -2 12 -10 19 -10 27
-2 15 15 68 16 68 2 0 -5 11 -10 24 -10 13 0 29 -7 36 -15 7 -8 21 -15 32 -15
36 0 88 -29 100 -56 14 -30 69 -90 80 -86 4 1 15 -16 25 -38 10 -22 24 -40 31
-40 6 0 12 -4 12 -10 0 -6 -8 -6 -23 1 -16 7 -31 7 -52 -2 -17 -6 -24 -13 -17
-16 28 -10 11 -25 -23 -20 -26 4 -35 2 -35 -8 0 -7 -13 -27 -30 -43 -23 -24
-30 -40 -32 -74 -3 -77 -4 -83 -16 -80 -30 6 -7 -18 38 -39 32 -15 50 -30 50
-41 0 -10 6 -18 13 -19 18 0 92 -120 79 -128 -14 -9 -5 -22 38 -51 19 -13 47
-35 63 -48 15 -14 27 -22 28 -16 1 5 4 -2 8 -16 4 -14 5 -34 3 -46 -3 -18 -8
-20 -40 -14 -21 4 -79 27 -130 52 -57 28 -101 44 -114 40 -11 -2 -23 0 -27 6
-3 6 -20 12 -36 14 -33 4 -110 42 -120 58 -18 29 -112 2 -140 -40 -15 -22 -25
-28 -42 -24 -13 4 -23 2 -23 -4 0 -5 -10 -13 -22 -16 -23 -6 -23 -6 -3 -22 11
-8 19 -19 18 -24 -5 -17 27 -31 75 -34 29 -2 77 -17 116 -35 36 -18 70 -30 74
-27 4 2 39 -4 77 -15 39 -12 88 -22 110 -24 22 -1 66 -13 99 -25 44 -17 60
-19 66 -10 6 9 13 9 29 1 16 -9 21 -9 21 1 0 7 14 21 31 30 25 15 28 21 20 37
-8 14 -7 22 4 31 7 6 16 24 18 38 l4 27 2 -29 c1 -23 4 -26 15 -17 11 9 16 9
21 0 8 -11 -14 -31 -26 -24 -3 3 -4 -7 -1 -20 3 -16 11 -25 23 -25 11 0 19 -5
19 -11 0 -6 -9 -9 -19 -6 -13 3 -18 1 -14 -9 2 -7 10 -11 17 -8 7 3 21 -4 31
-16 10 -11 24 -20 32 -20 7 0 13 -4 13 -10 0 -5 5 -10 10 -10 6 0 10 7 10 16
0 9 6 14 13 11 6 -2 11 -11 11 -20 -1 -9 3 -14 8 -11 6 4 7 -11 3 -40 -4 -27
-3 -51 3 -59 5 -6 13 -26 16 -44 6 -25 3 -34 -12 -42 -11 -6 -24 -30 -31 -58
-7 -26 -18 -55 -25 -63 -16 -18 -24 -78 -31 -220 -3 -58 -8 -116 -12 -130 -3
-14 -5 -29 -4 -33 4 -18 -45 -108 -62 -113 -10 -3 -17 -13 -16 -22 1 -9 0 -19
-1 -22 -1 -3 -3 -18 -4 -35 -3 -39 11 -71 40 -90 18 -11 23 -23 21 -53 -1 -25
6 -49 21 -69 43 -60 22 -101 -66 -128 -68 -20 -97 -16 -139 19 -48 41 -100 65
-150 70 -26 3 -64 9 -83 14 -56 13 -128 7 -150 -13 -17 -15 -24 -16 -46 -7
-33 16 -33 16 -44 -13 -8 -22 -12 -24 -36 -14 -27 10 -99 4 -142 -12 -17 -7
-21 -14 -17 -31 4 -18 -1 -28 -25 -43 -16 -11 -30 -25 -30 -32 0 -15 39 -28
50 -16 5 4 53 6 107 3 54 -3 107 -3 119 1 35 12 184 -14 195 -34 6 -9 17 -17
26 -17 13 0 14 -3 5 -12 -18 -18 -15 -30 23 -72 19 -22 35 -43 35 -48 0 -4 7
-5 15 -2 8 4 15 2 15 -4 0 -5 9 -12 19 -15 33 -8 15 -47 -21 -47 -27 0 -30 -2
-24 -25 4 -14 1 -35 -5 -46 -9 -18 -18 -21 -53 -17 -57 7 -98 28 -113 58 -7
14 -13 19 -13 13 0 -20 -38 -15 -61 8 -15 15 -20 30 -17 50 4 23 1 29 -14 29
-10 0 -27 -9 -39 -21 -16 -16 -23 -18 -35 -8 -8 6 -14 17 -14 24 0 7 -19 20
-42 30 -23 9 -52 25 -66 36 -14 10 -35 19 -48 19 -12 0 -26 5 -29 10 -11 17
-30 11 -40 -12 -6 -13 -22 -29 -36 -35 -53 -25 -62 -63 -16 -63 14 0 28 -11
39 -29 15 -28 18 -29 51 -19 30 9 39 8 65 -10 44 -32 84 -45 93 -31 10 17 72
3 101 -24 13 -12 36 -28 51 -36 15 -8 30 -23 33 -34 4 -11 22 -34 40 -51 19
-17 42 -47 52 -66 12 -25 33 -43 72 -63 79 -40 82 -47 22 -47 -41 0 -53 -4
-62 -20 -11 -21 -11 -21 -29 1 -19 24 -41 19 -41 -9 0 -21 -68 -102 -86 -102
-15 0 -44 -54 -45 -84 0 -12 -3 -15 -6 -8 -2 6 -9 12 -14 12 -4 0 -6 -7 -3
-15 4 -8 1 -22 -6 -30 -6 -8 -9 -18 -6 -24 4 -5 -7 -20 -22 -33 -16 -13 -34
-42 -41 -66 -11 -39 -10 -46 5 -63 24 -27 6 -64 -36 -72 -17 -4 -40 -17 -49
-29 -29 -35 -43 -13 -19 28 17 29 19 39 9 60 -12 27 -7 44 12 44 7 1 25 11 41
24 21 18 27 29 21 43 -5 12 -9 14 -12 6 -3 -7 -10 -13 -17 -13 -7 0 -21 -9
-31 -20 -10 -11 -27 -20 -37 -20 -31 0 -58 -19 -58 -40 0 -16 -44 -50 -65 -50
-13 0 -3 19 13 24 9 3 23 16 31 28 12 20 11 24 -10 41 -13 11 -25 23 -25 28
-1 5 -2 11 -3 14 0 3 -18 -3 -39 -14 -55 -28 -148 -37 -168 -16 -21 20 -9 33
16 17 24 -14 37 2 19 24 -9 11 -8 18 5 32 20 23 20 32 0 32 -19 0 -94 40 -94
51 0 16 -41 16 -61 -2 l-21 -18 22 -31 c15 -21 29 -30 40 -27 10 2 24 1 31 -4
11 -8 11 -12 -4 -23 -17 -13 -17 -15 -2 -24 9 -5 17 -13 17 -18 1 -5 15 -26
33 -47 23 -27 40 -37 60 -37 27 0 28 -1 10 -14 -19 -14 -18 -16 26 -73 26 -32
56 -63 67 -69 13 -6 18 -15 13 -23 -7 -10 -13 -11 -31 -1 -12 6 -25 9 -28 5
-3 -3 3 -8 14 -11 11 -3 26 -14 33 -26 10 -17 10 -22 -5 -33 -16 -11 -16 -15
-5 -29 10 -12 17 -13 27 -5 7 6 19 9 25 7 7 -2 -3 -20 -23 -42 -23 -25 -40
-36 -48 -31 -9 5 -11 4 -6 -4 5 -7 -4 -15 -23 -22 -20 -7 -31 -18 -31 -30 0
-10 -5 -19 -12 -19 -9 0 -9 -3 0 -12 16 -16 15 -28 -3 -28 -17 0 -35 -38 -28
-58 3 -6 1 -13 -3 -13 -5 -1 -18 -3 -30 -4 -11 -1 -29 -7 -40 -13 -17 -10 -16
-11 9 -12 26 0 27 -2 15 -22 -7 -13 -13 -30 -13 -38 0 -9 -11 -16 -25 -18 -14
-2 -35 -8 -48 -14 -18 -10 -28 -8 -51 5 -36 21 -61 22 -61 2 0 -9 -8 -18 -17
-22 -23 -8 -59 -45 -55 -56 4 -12 -26 -39 -37 -33 -5 3 -12 -1 -15 -10 -3 -9
-13 -14 -20 -11 -8 3 -20 -1 -26 -9 -7 -8 -9 -14 -4 -14 5 -1 -4 -8 -21 -18
-28 -16 67 -17 1790 -20 1612 -2 1821 0 1831 13 14 19 43 19 50 0 5 -12 30
-15 135 -15 l129 0 -2 843 c-1 463 -3 799 -5 747 -2 -94 -21 -443 -28 -510 -2
-20 -9 -72 -15 -115 -7 -44 -13 -144 -14 -223 -1 -192 -19 -187 -24 8 -2 115
1 165 13 213 9 34 18 114 20 177 2 63 4 115 5 115 1 0 4 27 6 60 4 48 1 62
-13 72 -16 12 -16 13 0 13 11 0 17 8 18 23 1 12 3 72 4 132 2 61 8 142 13 180
5 39 10 119 11 179 1 60 4 131 7 157 3 37 1 49 -9 49 -13 0 -30 -108 -58 -370
-32 -295 -41 -374 -45 -384 -7 -20 -46 -410 -44 -446 3 -69 -12 -230 -22 -224
-5 3 -8 13 -7 22 1 10 -2 25 -6 35 -4 10 -4 33 2 50 5 18 5 54 1 82 -5 28 -5
77 -2 110 4 33 8 71 10 85 1 14 8 72 13 130 6 58 18 146 27 195 14 83 26 176
54 410 29 239 28 229 12 257 -21 37 -32 19 -32 -55 0 -31 -7 -83 -15 -115 -8
-31 -28 -120 -45 -197 -17 -77 -36 -156 -41 -176 -5 -20 -9 -49 -9 -65 0 -16
-7 -54 -15 -84 -17 -65 -34 -183 -37 -262 -2 -38 -7 -58 -15 -58 -21 0 -22 13
-12 121 12 145 18 184 29 215 6 14 10 41 9 58 -2 32 10 115 18 130 3 4 7 31 9
59 3 28 9 54 16 58 6 4 7 12 3 18 -4 7 1 23 10 37 9 14 19 49 21 76 3 28 14
68 25 90 11 21 17 42 15 47 -3 4 -1 35 4 67 10 64 11 85 10 218 0 51 -5 95
-11 103 -15 18 -26 158 -11 149 19 -11 4 374 -19 484 -19 88 -33 211 -44 385
-3 39 -6 250 -6 470 -2 385 -9 496 -30 464 -5 -8 -9 -43 -8 -79 3 -122 -1
-168 -16 -184 -16 -16 -20 -46 -6 -46 17 0 32 -292 15 -309 -10 -11 -14 14
-24 149 -6 79 -16 152 -21 162 -7 12 -5 27 6 48 11 22 16 61 16 141 0 105 -8
139 -32 139 -15 0 -31 -83 -24 -128 11 -72 6 -681 -5 -702 -11 -21 -13 -73 -3
-83 3 -4 7 -19 8 -34 9 -136 19 -230 32 -293 8 -41 16 -91 18 -110 8 -86 25
-191 34 -207 5 -10 10 -72 10 -138 0 -66 7 -190 16 -275 13 -135 12 -260 -2
-246 -3 2 -6 52 -8 109 -2 58 -5 113 -8 123 -11 34 -19 118 -21 214 -2 89 -18
150 -38 150 -11 0 -10 -8 7 -55 8 -22 14 -56 14 -75 0 -35 0 -35 -19 15 -11
28 -20 57 -20 65 0 19 -17 46 -25 39 -3 -3 4 -35 15 -70 13 -38 25 -118 31
-199 11 -138 18 -174 20 -104 1 24 6 4 14 -51 12 -88 7 -145 -7 -75 -4 21 -6
-4 -6 -65 0 -55 -2 -116 -5 -135 -4 -19 -14 -93 -22 -165 -9 -71 -18 -145 -21
-162 -7 -49 21 -32 35 20 25 95 41 210 31 222 -6 8 -5 16 3 24 9 9 9 14 -3 21
-13 8 -13 10 2 10 12 0 17 -12 20 -52 5 -75 -15 -217 -36 -257 -10 -18 -16
-42 -13 -52 3 -10 -2 -38 -10 -61 -9 -24 -19 -59 -23 -78 -17 -73 -20 -83 -25
-88 -3 -3 -4 25 -3 61 2 37 5 67 8 67 3 0 11 25 18 56 12 51 12 57 -5 69 -13
10 -20 10 -25 2 -11 -17 -10 -55 2 -62 6 -4 6 -15 0 -30 -5 -14 -19 -89 -30
-168 -12 -78 -25 -159 -31 -179 -5 -20 -6 -62 -3 -92 5 -39 3 -56 -5 -56 -6 0
-11 7 -11 16 0 8 -4 13 -9 10 -10 -7 -4 101 8 129 8 19 19 76 41 220 5 33 14
112 20 175 6 63 15 129 20 145 8 27 19 118 24 200 1 17 8 44 15 60 15 33 9
262 -9 371 -24 144 -49 399 -44 435 8 45 26 47 35 3 6 -34 2 110 -6 206 -4 36
-14 110 -25 165 -29 158 -30 162 -20 194 5 18 5 31 -1 33 -10 3 -32 124 -25
136 2 4 8 41 12 82 10 110 11 114 19 132 9 23 2 54 -13 50 -7 -1 -12 2 -12 8
0 5 5 10 12 10 8 0 9 39 4 150 -4 88 -3 150 3 150 9 0 6 190 -4 263 -3 20 -1
37 4 37 5 0 12 -17 15 -37 20 -109 35 -96 31 25 -3 84 -21 194 -24 152 -1 -13
-2 -13 -9 0 -5 8 -4 80 0 160 10 183 12 198 26 212 7 7 12 26 13 43 0 29 1 29
10 7 6 -15 5 -47 -1 -85 -5 -34 -12 -115 -15 -179 -6 -104 -4 -117 10 -112 17
7 26 36 23 74 -4 51 2 89 17 104 19 19 27 290 13 471 -5 66 -8 138 -7 160 2
38 2 169 0 208 -1 18 -26 23 -36 7 -3 -6 -7 -105 -8 -220 -1 -196 -3 -210 -19
-210 -10 0 -21 -7 -24 -15 -4 -8 -12 -15 -19 -15 -8 0 -19 -17 -26 -37 l-13
-38 -8 55 c-4 30 -5 63 -2 73 3 10 7 108 8 217 l3 200 -27 0 -26 0 -2 -197
c-2 -207 -3 -228 -23 -650 -10 -216 -15 -261 -26 -252 -10 9 -13 6 -15 -12 -2
-44 3 -74 17 -81 10 -6 10 -15 -2 -49 -7 -23 -11 -44 -8 -47 3 -3 5 0 5 6 0 7
7 12 15 12 11 0 15 -12 15 -52 -1 -49 -2 -51 -15 -34 -17 23 -17 22 -21 -149
-1 -49 -7 -173 -13 -275 -11 -168 -10 -200 9 -350 11 -91 25 -187 30 -215 5
-27 11 -75 14 -105 2 -30 7 -66 10 -80 3 -14 19 -81 35 -150 16 -69 32 -152
36 -185 4 -33 10 -76 15 -95 13 -55 23 -136 16 -129 -12 12 -45 143 -65 254
-23 133 -56 305 -77 400 -8 39 -21 122 -28 186 -7 63 -18 124 -23 135 -6 10
-13 46 -16 79 -3 33 -11 61 -17 63 -7 3 -7 8 -1 15 11 14 18 114 8 123 -4 4
-7 -5 -7 -19 0 -15 -4 -27 -9 -27 -18 0 -17 35 2 70 15 26 21 62 25 143 3 59
8 107 11 107 3 0 6 79 6 175 0 97 5 219 12 273 18 136 36 453 35 600 -1 78 2
122 9 122 6 0 9 45 8 128 -2 133 -14 245 -19 187 -2 -16 -4 -59 -5 -95 -1 -36
-9 -95 -18 -131 -11 -45 -18 -128 -21 -270 -2 -112 -9 -247 -15 -299 -6 -52
-13 -136 -15 -187 -3 -51 -6 -96 -9 -100 -12 -19 -17 -103 -7 -103 7 0 8 -5 3
-12 -4 -7 -11 -60 -15 -118 -13 -196 -29 -335 -44 -382 -12 -38 -13 -58 -5
-104 6 -32 11 -80 11 -108 0 -102 48 -399 77 -481 8 -22 19 -67 24 -99 6 -32
19 -77 30 -100 32 -63 47 -128 37 -156 -10 -27 -1 -80 13 -80 5 0 7 19 3 43
-4 31 -3 38 5 27 15 -21 14 -97 -1 -103 -8 -4 -7 -6 4 -6 11 -1 21 -18 32 -53
16 -56 39 -202 40 -254 1 -18 9 -41 19 -52 10 -11 17 -29 14 -39 -4 -16 -6
-15 -12 5 -13 41 -24 23 -20 -35 l4 -58 -14 65 c-11 53 -33 175 -49 285 -2 11
-4 24 -5 28 0 5 -5 5 -11 2 -5 -3 -10 1 -10 9 0 9 6 15 13 13 7 -1 13 10 15
26 2 19 -1 27 -12 27 -10 0 -16 -9 -17 -22 0 -22 -1 -22 -9 -3 -12 30 -52 214
-56 260 -1 22 -15 74 -29 115 -14 41 -34 108 -44 149 -11 40 -23 76 -28 80
-19 13 -53 327 -68 632 -5 107 -4 127 9 138 19 16 21 37 4 44 -9 4 -10 8 -2
14 6 4 15 31 19 58 4 28 11 58 17 68 7 14 5 23 -6 36 -9 10 -13 26 -10 38 3
12 1 69 -5 126 -11 95 -10 109 7 153 18 45 32 122 36 199 1 17 5 68 9 115 5
62 4 77 -3 55 -18 -54 -50 -217 -50 -256 0 -20 -9 -59 -21 -86 -19 -44 -21
-72 -26 -338 -2 -159 -4 -328 -3 -373 1 -78 0 -83 -17 -78 -17 5 -20 0 -22
-43 -2 -54 14 -76 29 -39 10 25 6 -67 -6 -130 -3 -17 -3 -53 1 -78 5 -35 9
-43 19 -35 10 9 14 -2 20 -50 3 -33 3 -72 0 -85 -4 -13 -2 -30 4 -37 13 -16
18 -59 9 -74 -5 -7 -1 -28 8 -47 9 -19 17 -67 19 -112 2 -51 10 -91 21 -113
10 -18 20 -63 23 -100 5 -65 -4 -81 -14 -25 -3 16 -14 49 -25 73 -10 24 -19
52 -19 63 0 11 -5 16 -11 13 -6 -4 -7 -20 -3 -38 3 -18 3 -29 -1 -25 -20 19
-48 219 -81 588 -34 377 -45 613 -32 668 13 52 5 134 -17 164 -19 28 -22 149
-3 130 19 -19 28 -14 28 16 0 15 5 34 10 42 11 17 16 -55 11 -145 -2 -27 3
-75 9 -107 10 -44 10 -68 1 -100 -17 -61 -19 -138 -5 -138 8 0 10 -11 4 -37
-5 -21 -7 -56 -6 -78 2 -22 3 -53 4 -69 3 -49 16 -19 18 42 2 31 7 109 12 172
4 63 5 149 1 190 -4 41 -8 132 -8 202 -1 69 -7 186 -15 260 -13 121 -22 321
-31 713 -1 77 -6 157 -10 178 -6 32 -11 37 -35 37 -16 0 -30 -7 -34 -16 -9
-25 -7 -184 3 -184 14 0 21 28 9 32 -8 3 -8 10 1 25 6 12 11 41 11 65 0 24 5
50 11 58 8 11 9 4 6 -30 -3 -25 -2 -82 2 -127 3 -46 5 -83 4 -83 -1 0 -11 9
-22 21 -24 26 -32 13 -22 -34 5 -21 5 -37 -1 -39 -5 -2 -2 -22 6 -46 8 -23 13
-49 10 -56 -3 -8 2 -26 11 -39 14 -21 15 -41 9 -122 -4 -52 -11 -98 -16 -101
-5 -3 -6 -14 -3 -24 4 -14 0 -19 -17 -22 -21 -3 -23 -9 -23 -55 -1 -34 4 -54
12 -57 7 -3 12 -18 12 -33 -1 -17 -3 -21 -6 -10 -2 9 -9 17 -14 17 -11 0 -12
-21 0 -38 11 -19 27 3 35 51 7 40 29 49 44 20 10 -19 22 -197 13 -188 -3 3 -6
11 -7 18 -1 7 -11 35 -22 62 -15 38 -22 46 -27 33 -4 -10 -13 -18 -21 -18 -11
0 -14 -17 -14 -70 0 -64 10 -89 23 -57 4 8 6 8 6 -2 1 -8 -6 -23 -16 -33 -15
-17 -15 -18 7 -18 17 0 21 -4 15 -17 -21 -54 -9 -176 19 -196 7 -5 5 -12 -7
-21 -16 -12 -19 -31 -20 -124 -1 -65 2 -108 7 -104 6 3 6 -3 1 -14 -4 -10 -10
-32 -12 -49 -3 -23 -2 -27 6 -15 9 12 11 10 11 -10 1 -14 2 -50 4 -80 2 -34
-1 -58 -8 -62 -8 -6 -8 -10 2 -16 7 -5 14 -36 16 -73 3 -35 8 -102 12 -149 7
-94 -5 -102 -18 -12 -4 31 -10 68 -13 82 -3 14 -7 48 -10 75 -3 28 -7 64 -10
80 -18 112 -62 1106 -50 1125 4 7 11 37 15 68 4 32 13 71 20 87 12 28 11 33
-12 58 -29 31 -38 34 -38 12 0 -20 -20 -19 -36 2 -7 10 -16 14 -21 10 -4 -5 0
-14 10 -21 20 -16 23 -81 4 -105 -9 -12 -11 -47 -6 -136 3 -66 6 -97 7 -68 1
29 9 74 18 100 12 36 14 51 5 65 -18 29 -12 43 8 19 15 -17 18 -31 13 -64 -3
-23 -9 -45 -15 -48 -5 -4 -5 -15 2 -28 7 -12 9 -26 6 -31 -3 -5 -6 -76 -6
-159 -1 -105 -4 -150 -12 -148 -7 1 -12 -21 -13 -63 -4 -132 -21 -236 -38
-220 -6 7 -16 308 -20 608 -3 228 -8 291 -20 251 -12 -41 -25 -181 -21 -229
10 -116 12 -260 4 -260 -5 0 -9 15 -9 33 -1 30 -1 31 -15 13 -8 -11 -15 -14
-15 -8 0 7 -4 12 -9 12 -5 0 -9 -15 -9 -34 0 -46 -12 -97 -21 -91 -5 2 -6 53
-3 112 3 59 4 141 3 180 -2 52 2 79 13 95 9 12 16 41 16 65 0 23 5 45 10 48 6
4 8 10 6 14 -11 17 -16 190 -7 196 6 3 8 24 4 50 -4 30 -2 45 5 45 7 0 9 7 5
17 -4 11 -3 14 5 9 7 -4 12 -14 12 -21 0 -8 6 -12 14 -9 24 9 35 101 23 178
-13 78 -37 103 -37 38 0 -21 -3 -42 -6 -45 -10 -10 -44 39 -44 62 0 18 -6 21
-38 21 -51 0 -63 -21 -50 -89 5 -29 7 -60 4 -68 -3 -8 -1 -46 5 -85 12 -74 8
-88 -16 -68 -10 8 -15 9 -15 2 0 -6 9 -16 19 -22 16 -8 19 -17 14 -48 -3 -20
-10 -38 -15 -40 -13 -6 -9 -32 5 -32 8 0 8 -3 -2 -9 -11 -7 -12 -27 -7 -102 9
-112 10 -131 6 -184 -3 -37 0 -59 15 -106 4 -11 2 -19 -4 -19 -6 0 -11 -21
-11 -49 0 -57 -17 -77 -26 -32 -4 17 -12 31 -19 31 -8 0 -15 6 -18 13 -2 6 -2
213 1 460 l4 447 -56 0 -56 0 0 -45 c0 -53 18 -98 37 -91 9 4 13 -4 13 -27 0
-24 -3 -28 -10 -17 -8 12 -12 13 -19 2 -5 -9 -1 -32 10 -62 16 -43 25 -190 10
-190 -2 0 -14 8 -25 18 -18 16 -18 14 3 -22 20 -35 22 -48 16 -113 -4 -40 -11
-76 -16 -79 -5 -3 -9 -16 -9 -29 0 -13 -4 -27 -10 -30 -5 -3 -10 -29 -10 -56
l0 -50 -30 23 c-16 12 -30 30 -30 40 0 12 -11 23 -31 30 l-30 10 2 102 c1 55
6 111 11 124 4 13 5 41 2 63 -17 105 -43 -22 -30 -143 3 -26 1 -50 -4 -53 -6
-4 -7 -18 -4 -32 5 -19 3 -24 -7 -21 -10 3 -14 24 -15 74 0 68 -15 114 -36
114 -7 0 -9 -23 -6 -70 5 -67 -2 -94 -18 -69 -3 6 -8 44 -10 84 -3 61 -1 74
12 77 13 2 11 9 -9 38 -13 19 -30 34 -37 32 -8 -2 -10 5 -6 22 7 29 -70 186
-92 186 -13 0 -42 57 -42 82 1 7 9 3 20 -10 23 -28 44 -20 37 14 -2 13 2 32
10 41 12 16 13 11 8 -42 -5 -58 10 -122 40 -168 11 -15 13 67 6 226 -1 14 -10
17 -50 17 -43 0 -50 -3 -54 -22 l-4 -23 -8 23 c-5 15 -15 22 -32 22 -13 0 -22
-4 -18 -9 3 -5 1 -12 -5 -16 -5 -3 -10 1 -10 10 0 12 -7 15 -27 13 -25 -3 -29
-8 -34 -48 -4 -25 -3 -119 1 -209 4 -90 5 -172 3 -182 -10 -36 -21 -19 -22 34
0 29 -4 100 -10 157 -5 58 -7 138 -5 178 3 58 1 72 -11 72 -13 0 -15 -32 -14
-217 1 -139 -2 -218 -9 -221 -6 -2 -10 42 -11 120 -1 68 -4 148 -7 179 -4 35
-2 64 5 78 15 27 5 63 -17 59 -20 -4 -24 -69 -13 -230 5 -74 4 -125 -1 -129
-5 -3 -6 -18 -2 -32 4 -18 2 -27 -5 -27 -18 0 -25 29 -12 54 10 17 9 31 -2 66
-15 46 -16 163 -3 253 6 44 5 47 -15 47 -21 0 -21 0 -16 -200 3 -138 1 -200
-6 -197 -6 2 -11 42 -12 100 -1 82 -4 100 -21 119 -12 13 -24 31 -27 41 -4 9
-11 17 -17 17 -5 0 -10 10 -9 23 0 20 1 20 8 3 10 -25 17 -12 25 47 6 39 5 47
-8 47 -11 0 -16 -10 -16 -31 0 -17 -4 -28 -10 -24 -5 3 -10 17 -10 31 0 15 -6
24 -16 24 -12 0 -14 -8 -9 -44 5 -28 3 -46 -4 -50 -7 -5 -11 4 -11 23 0 36 -9
61 -21 61 -6 0 -8 -33 -5 -77 3 -43 5 -84 5 -91 1 -7 6 -10 11 -7 6 4 8 15 5
26 -8 23 4 47 15 30 5 -9 5 -184 0 -274 0 -5 -5 -5 -10 -2 -6 4 -8 15 -5 26 4
11 3 44 -1 75 -9 79 -29 54 -26 -32 3 -49 0 -65 -9 -62 -14 5 -13 146 1 163
10 12 1 93 -10 100 -11 7 -19 -51 -16 -117 2 -32 0 -58 -4 -58 -11 0 -18 96
-10 139 4 22 3 46 -2 56 -5 9 -7 24 -3 33 6 16 7 16 16 -1 14 -24 29 -12 29
23 0 60 -29 86 -31 28 l-1 -33 -7 30 c-4 18 -14 31 -25 33 -18 4 -19 -1 -13
-94 l7 -97 -25 23 c-28 26 -33 50 -10 50 9 0 15 9 15 24 0 29 -20 46 -21 19 0
-12 -5 -9 -14 11 l-13 30 -7 -32 c-4 -18 -6 -65 -5 -105 3 -114 0 -191 -8
-204 -4 -6 -32 -14 -63 -17 -55 -6 -57 -5 -63 19 -4 16 -1 34 9 48 8 12 15 31
15 42 1 14 5 10 16 -14 8 -19 17 -31 21 -28 12 13 12 57 -1 83 -12 21 -15 22
-20 8 -6 -15 -8 -15 -26 1 -17 15 -19 27 -15 64 3 25 8 66 9 91 2 25 5 45 6
45 1 0 3 8 5 18 2 12 -3 17 -22 17 l-25 0 2 -97 c1 -54 1 -144 1 -201 -1 -93
-3 -103 -18 -100 -10 2 -22 13 -28 26 -12 27 -27 24 -36 -9 -6 -21 -7 -21 -9
-4 -1 11 -1 25 0 30 2 6 2 20 2 32 -2 30 15 38 23 12 4 -11 10 -17 14 -13 10
13 1 124 -10 124 -5 0 -6 -12 -3 -26 5 -19 4 -25 -5 -20 -14 9 -14 46 -1 66 9
13 11 13 20 0 9 -13 10 -13 10 0 -1 8 -7 24 -15 34 -8 10 -12 23 -9 28 3 5 12
1 20 -9 11 -15 14 -15 15 -3 2 26 -2 45 -16 60 -7 8 -15 26 -17 40 -2 19 -10
26 -31 28 l-29 4 6 -84 c7 -101 7 -184 0 -261 -5 -51 -9 -58 -31 -64 -15 -3
-34 -1 -44 5 -10 7 -26 9 -35 5 -15 -5 -16 -1 -11 30 3 23 1 38 -6 41 -9 5 -9
7 1 12 15 7 17 107 2 134 -5 10 -11 54 -12 99 l-3 81 -29 0 c-26 0 -28 -2 -23
-32 2 -18 11 -48 18 -66 10 -25 11 -35 2 -40 -17 -11 -20 -91 -4 -101 11 -7
11 -9 0 -13 -10 -3 -9 -10 4 -28 22 -31 21 -42 0 -38 -15 3 -17 -4 -15 -39 4
-50 -9 -56 -25 -12 -10 26 -10 36 2 52 10 15 11 26 3 46 -6 14 -12 78 -14 141
-1 63 -3 118 -3 123 -1 4 -23 7 -51 7 l-50 0 -1 -97z m1167 -30 c11 -264 12
-310 4 -328 -8 -18 -9 -18 -10 5 -1 14 -1 45 0 70 0 25 -4 107 -10 183 -9 126
-7 168 7 153 3 -3 7 -40 9 -83z m748 24 c18 -7 23 -67 6 -67 -5 0 -10 -11 -10
-23 0 -49 -15 -36 -25 20 -12 66 -8 133 6 97 4 -12 14 -24 23 -27z m-687 -89
c3 -70 -9 -49 -21 37 -6 40 -5 48 5 38 7 -7 14 -41 16 -75z m-377 -39 c0 -56
3 -78 11 -73 7 4 9 22 4 49 -3 24 -2 46 3 49 16 10 22 -21 22 -116 0 -92 -8
-109 -19 -43 -7 40 -27 48 -24 9 1 -13 -2 -24 -7 -24 -4 0 -7 42 -5 93 2 51 0
99 -5 107 -10 16 -2 42 11 34 5 -3 9 -41 9 -85z m-174 9 c-3 -13 -6 -58 -6
-101 0 -77 -1 -78 -22 -72 -33 10 -37 17 -31 47 6 32 23 28 24 -5 1 -16 4 -13
11 12 11 40 3 75 -12 51 -8 -12 -10 -10 -10 8 0 13 4 21 9 17 6 -3 13 10 17
30 3 19 11 35 16 35 6 0 8 -10 4 -22z m608 -12 c12 -57 16 -175 6 -181 -6 -4
-10 15 -11 52 -2 69 -4 88 -17 130 -8 26 -8 31 4 26 8 -3 16 -15 18 -27z
m-1177 -78 c-3 -8 -6 -5 -6 6 -1 11 2 17 5 13 3 -3 4 -12 1 -19z m1133 -4 c0
-8 -5 -12 -10 -9 -6 4 -8 11 -5 16 9 14 15 11 15 -7z m970 -35 c0 -5 -7 -9
-15 -9 -9 0 -15 9 -15 21 0 18 2 19 15 9 8 -7 15 -16 15 -21z m-1494 -36 c-10
-10 -19 5 -10 18 6 11 8 11 12 0 2 -7 1 -15 -2 -18z m527 -16 c4 -38 -8 -62
-15 -30 -4 20 2 76 8 71 2 -2 5 -21 7 -41z m116 -44 c-1 -32 -4 -71 -6 -88
-10 -55 -22 4 -16 78 7 82 24 89 22 10z m-73 -39 c-4 -19 -11 -32 -17 -29 -12
8 -11 27 2 62 14 35 23 14 15 -33z m-41 16 c3 -5 1 -10 -4 -10 -6 0 -11 5 -11
10 0 6 2 10 4 10 3 0 8 -4 11 -10z m1494 -112 c1 -16 -3 -28 -9 -28 -5 0 -10
21 -9 48 0 35 3 42 9 27 5 -11 9 -32 9 -47z m-858 -55 c-9 -15 -10 -12 -10 17
0 29 1 32 10 18 7 -12 7 -24 0 -35z m733 -19 c3 -8 11 -12 17 -9 6 4 13 -3 16
-15 4 -14 8 -18 13 -10 4 7 8 -13 8 -44 0 -42 -3 -56 -14 -56 -7 0 -17 -12
-20 -26 -6 -24 2 -128 13 -162 4 -14 3 -15 -6 -2 -5 8 -13 12 -16 8 -9 -9 -7
-391 3 -508 10 -118 9 -306 -3 -518 -8 -162 0 -291 27 -417 8 -36 8 -50 -1
-53 -13 -4 -14 -41 -2 -61 6 -10 11 -6 19 15 9 26 11 22 11 -33 1 -40 -3 -63
-11 -65 -10 -4 -10 -16 0 -57 15 -66 16 -124 2 -99 -6 9 -12 29 -15 45 -2 15
-9 51 -14 78 -6 28 -15 118 -20 200 -6 83 -19 231 -30 330 -12 99 -23 199 -25
223 -3 23 -1 42 5 42 5 0 9 -12 10 -27 0 -16 4 -37 8 -48 12 -29 21 209 10
248 -5 18 -7 56 -4 85 3 29 2 59 -2 65 -4 7 -6 38 -4 69 2 44 -1 62 -14 74
-16 16 -16 18 0 27 14 7 15 11 4 18 -11 6 -11 12 0 33 11 19 12 45 6 108 -4
46 -7 90 -7 98 10 307 12 382 12 418 0 42 12 56 24 26z m-947 -121 c-3 -10 -5
-2 -5 17 0 19 2 27 5 18 2 -10 2 -26 0 -35z m553 11 c0 -8 -6 -11 -15 -8 -8 4
-15 9 -15 13 0 4 7 8 15 8 8 0 15 -6 15 -13z m-43 -226 c-2 -13 -4 -3 -4 22 0
25 2 35 4 23 2 -13 2 -33 0 -45z m-231 -22 c8 -22 11 -55 7 -81 -6 -46 -28
-67 -37 -37 -6 16 -8 102 -4 145 2 28 20 14 34 -27z m304 -46 c0 -11 -2 -20
-4 -20 -2 0 -6 9 -9 20 -3 11 -1 20 4 20 5 0 9 -9 9 -20z m420 -143 c0 -4 -4
-6 -9 -2 -5 3 -12 -3 -14 -12 -3 -10 -5 0 -6 22 0 37 1 39 14 21 8 -11 15 -24
15 -29z m-571 -242 c1 -44 0 -77 -3 -74 -10 10 -27 189 -19 201 11 18 19 -28
22 -127z m566 -425 c3 -5 1 -10 -4 -10 -6 0 -11 5 -11 10 0 6 2 10 4 10 3 0 8
-4 11 -10z m-138 -127 c-3 -10 -5 -4 -5 12 0 17 2 24 5 18 2 -7 2 -21 0 -30z
m273 -4 c0 -11 -4 -17 -10 -14 -5 3 -10 13 -10 21 0 8 5 14 10 14 6 0 10 -9
10 -21z m-620 -55 c0 -8 -4 -12 -10 -9 -5 3 -10 10 -10 16 0 5 5 9 10 9 6 0
10 -7 10 -16z m140 -34 c0 -27 -4 -50 -10 -50 -5 0 -10 23 -10 50 0 28 5 50
10 50 6 0 10 -22 10 -50z m488 -42 c6 -35 9 -90 8 -123 -5 -97 -7 -104 -18
-65 -12 44 -29 230 -22 241 12 20 21 5 32 -53z m-251 -25 c-3 -10 -5 -4 -5 12
0 17 2 24 5 18 2 -7 2 -21 0 -30z m-363 -168 c13 -137 18 -181 22 -197 3 -10
1 -18 -4 -18 -17 0 -58 345 -44 377 7 17 15 -32 26 -162z m266 89 c0 -8 -4
-12 -10 -9 -5 3 -10 13 -10 21 0 8 5 12 10 9 6 -3 10 -13 10 -21z m130 -86 c0
-4 -4 -8 -10 -8 -5 0 -10 4 -10 9 0 5 -3 18 -6 28 -5 16 -4 16 10 -1 9 -11 16
-23 16 -28z m-351 -41 c-1 -31 -1 -31 -9 -7 -11 36 -11 52 0 45 6 -3 10 -21 9
-38z m-94 -50 c5 -32 12 -125 14 -209 1 -16 6 -27 13 -25 7 1 19 -30 30 -83
17 -82 17 -124 -1 -104 -13 13 -41 117 -41 151 0 15 -6 39 -13 53 -17 33 -28
144 -20 210 7 58 10 59 18 7z m332 21 c-3 -8 -6 -5 -6 6 -1 11 2 17 5 13 3 -3
4 -12 1 -19z m353 -65 c0 -2 -4 -3 -10 -3 -12 0 -29 60 -22 79 4 10 30 -54 32
-76z m-421 -75 c1 -26 6 -59 12 -75 6 -15 14 -50 19 -78 4 -27 10 -54 12 -60
1 -5 -1 -11 -7 -12 -5 -1 -18 38 -27 85 -19 99 -33 252 -19 212 5 -14 9 -46
10 -72z m181 57 c0 -8 -4 -15 -10 -15 -5 0 -7 7 -4 15 4 8 8 15 10 15 2 0 4
-7 4 -15z m-340 -17 c0 -19 -2 -20 -10 -8 -13 19 -13 30 0 30 6 0 10 -10 10
-22z m584 -50 c3 -24 10 -65 16 -93 19 -93 24 -138 13 -132 -6 4 -13 19 -16
34 -3 16 -15 64 -26 108 -18 75 -19 125 -1 125 4 0 10 -19 14 -42z m-561 -93
c0 -38 -3 -81 -7 -95 -5 -17 -4 -21 2 -11 7 10 10 -1 9 -37 -1 -28 -5 -48 -8
-44 -15 17 -38 94 -49 164 -12 73 -11 77 9 99 11 13 21 28 22 33 0 6 5 0 11
-14 5 -14 10 -56 11 -95z m-158 -16 c8 -112 23 -172 42 -164 9 3 17 -3 20 -15
3 -11 12 -20 21 -20 13 0 14 -2 3 -12 -10 -11 -16 -8 -31 12 -14 18 -20 21
-20 9 0 -9 3 -19 7 -22 12 -13 42 -88 32 -82 -19 12 -79 145 -98 217 -24 90
-35 169 -22 149 8 -12 11 -9 17 13 11 45 22 11 29 -85z m265 -191 c12 -40 34
-111 50 -158 27 -84 43 -169 56 -302 6 -65 6 -69 -20 -89 -26 -20 -26 -22 -20
-102 4 -45 8 -84 10 -86 3 -3 10 4 17 13 8 11 13 44 12 83 -1 55 1 62 12 47
10 -14 13 -15 14 -3 1 8 2 20 3 28 0 8 7 16 13 18 15 5 15 -45 0 -64 -5 -7
-10 -30 -11 -51 -1 -21 -12 -55 -24 -76 -15 -26 -22 -53 -21 -84 2 -78 -11
-253 -20 -271 -4 -9 -9 -32 -9 -51 -2 -45 -34 -124 -40 -96 -2 10 3 37 11 60
21 55 32 152 19 160 -7 4 -7 17 -1 39 11 40 11 40 -1 32 -15 -9 -12 12 6 51
11 24 14 46 10 72 -4 20 -9 78 -13 127 -3 50 -10 98 -15 108 -6 12 -4 28 6 49
24 46 20 148 -9 262 -14 54 -28 103 -32 109 -3 5 0 13 6 17 9 5 7 22 -9 66
-20 57 -38 164 -28 164 3 0 15 -33 28 -72z m-386 -34 c-4 -34 -11 -53 -18 -51
-6 2 -10 13 -8 23 1 10 4 39 6 64 5 65 6 68 17 42 5 -13 6 -48 3 -78z m456 57
c0 -15 7 -41 15 -58 15 -29 16 -105 3 -119 -4 -4 -13 6 -20 21 -9 20 -9 30 -2
32 12 4 4 70 -13 113 -6 14 -8 31 -6 38 8 21 23 3 23 -27z m425 -110 c8 -102
8 -128 -2 -124 -20 8 -15 -15 5 -26 15 -9 15 -12 2 -20 -26 -17 -33 4 -35 111
-1 57 -4 108 -5 113 -1 6 -2 30 -1 55 1 35 4 41 13 32 8 -8 17 -66 23 -141z
m-544 68 c14 -27 19 -69 8 -69 -5 0 -9 6 -9 13 0 8 -4 7 -11 -3 -8 -12 -9 -10
-4 8 3 12 2 22 -3 22 -5 0 -7 11 -4 25 5 30 8 31 23 4z m-201 -78 c0 -13 16
-43 35 -67 19 -23 35 -47 35 -52 0 -5 9 -17 20 -27 13 -11 20 -31 20 -52 0
-20 4 -32 10 -28 5 3 12 -7 16 -22 4 -15 11 -34 17 -41 7 -8 7 -16 1 -20 -5
-4 -10 -28 -10 -54 -2 -55 -51 -163 -92 -199 -28 -25 -78 -51 -122 -64 -38
-11 -70 -34 -70 -50 0 -7 10 -15 23 -17 12 -2 22 -7 21 -13 -1 -11 -52 -51
-58 -44 -2 2 -6 32 -8 67 -4 60 -3 64 21 76 14 8 42 17 61 20 54 11 113 39
138 66 35 38 72 121 71 160 0 33 -2 31 -22 -25 -35 -95 -117 -167 -202 -177
-24 -2 -30 1 -36 22 -10 36 -9 132 2 155 7 16 8 14 8 -15 -2 -71 1 -92 13 -88
6 2 13 24 15 48 5 50 38 95 46 62 4 -15 5 -15 12 2 6 13 3 29 -8 49 -16 28
-16 30 5 57 13 16 32 27 43 27 14 -2 21 5 23 21 4 26 -9 28 -42 7 -21 -14 -25
-14 -36 0 -10 12 -8 16 13 24 26 10 41 48 31 75 -8 21 -44 20 -60 -1 -13 -17
-13 -17 -14 0 0 20 20 59 36 69 7 5 10 29 8 65 l-5 58 20 -25 c12 -14 21 -36
21 -49z m145 10 c5 -17 3 -22 -5 -19 -7 2 -14 19 -16 38 -4 37 7 27 21 -19z
m152 27 c-3 -8 -6 -5 -6 6 -1 11 2 17 5 13 3 -3 4 -12 1 -19z m-361 -13 c9
-14 14 -28 10 -32 -11 -11 -56 20 -56 39 0 26 27 22 46 -7z m-136 -7 c-1 -24
-36 -75 -46 -65 -6 5 33 87 41 87 3 0 5 -10 5 -22z m304 -73 c19 -28 20 -35 6
-35 -5 0 -16 14 -25 30 -19 36 -4 40 19 5z m275 -6 c2 27 11 4 32 -75 25 -95
32 -194 14 -194 -22 0 -36 49 -29 102 4 28 2 58 -4 71 -16 33 -32 88 -31 106
0 12 3 11 9 -4 5 -12 9 -14 9 -6z m-142 -51 c-3 -8 -6 -5 -6 6 -1 11 2 17 5
13 3 -3 4 -12 1 -19z m-77 -30 c0 -19 -2 -20 -10 -8 -13 19 -13 30 0 30 6 0
10 -10 10 -22z m109 -84 c20 -111 11 -270 -12 -211 -3 6 -6 0 -6 -14 -1 -15
-4 -42 -8 -60 -6 -31 -5 -33 11 -20 28 23 29 5 3 -51 -25 -54 -38 -108 -62
-259 -28 -175 -58 -261 -84 -244 -9 5 -10 10 -2 18 6 6 11 21 11 33 0 13 4 25
9 28 5 4 12 25 16 49 4 23 13 57 21 75 19 46 42 202 42 282 0 36 5 85 12 109
6 25 12 88 13 142 1 104 6 115 18 46 6 -29 7 -15 4 43 -3 47 -7 96 -10 110 -5
21 -4 22 4 5 5 -11 14 -47 20 -81z m-49 46 c0 -5 -5 -10 -11 -10 -5 0 -7 5 -4
10 3 6 8 10 11 10 2 0 4 -4 4 -10z m-290 -39 c0 -5 -7 -14 -15 -21 -13 -10
-15 -9 -15 9 0 12 6 21 15 21 8 0 15 -4 15 -9z m804 -18 c3 -10 7 -42 8 -70 2
-31 8 -55 16 -58 6 -2 12 -12 12 -20 0 -10 -5 -13 -12 -9 -8 5 -9 2 -3 -12 13
-28 18 -212 7 -259 -7 -34 -10 -19 -16 90 -4 72 -11 148 -16 170 -21 93 -18
238 4 168z m-530 -49 c10 -26 7 -139 -5 -173 -15 -44 -30 -39 -17 6 5 20 8 70
6 110 -3 70 3 91 16 57z m263 -96 c-3 -7 -5 -2 -5 12 0 14 2 19 5 13 2 -7 2
-19 0 -25z m-67 -38 c0 -5 -7 -10 -16 -10 -8 0 -12 5 -9 10 3 6 10 10 16 10 5
0 9 -4 9 -10z m-250 -70 c-15 -28 -23 -20 -14 15 4 17 10 23 16 17 6 -6 6 -18
-2 -32z m440 -47 l0 -38 -15 29 c-15 28 -13 46 6 46 5 0 9 -17 9 -37z m-149
-6 c-8 -8 -11 -7 -11 4 0 20 13 34 18 19 3 -7 -1 -17 -7 -23z m-311 3 c0 -5
-4 -10 -10 -10 -5 0 -10 5 -10 10 0 6 5 10 10 10 6 0 10 -4 10 -10z m19 -74
c-9 -8 -10 -7 -5 7 3 10 7 24 7 30 1 7 3 4 6 -7 3 -10 -1 -23 -8 -30z m-361 5
c2 -12 -2 -28 -8 -36 -8 -10 -8 -19 0 -35 16 -30 14 -250 -3 -267 -4 -3 -4
-22 -1 -40 3 -18 2 -33 -3 -33 -4 0 -18 38 -29 85 -16 67 -18 85 -7 85 15 0
17 33 3 60 -18 34 -15 153 5 183 20 32 38 31 43 -2z m640 -21 c-13 -55 -31
-79 -22 -30 9 44 23 84 29 79 2 -3 -1 -25 -7 -49z m-332 -60 c-12 -31 -40 -64
-34 -40 26 101 32 115 38 90 4 -14 2 -36 -4 -50z m628 -37 c-2 -58 -6 -108 -9
-111 -3 -3 -5 42 -5 100 0 90 4 118 16 118 1 0 0 -48 -2 -107z m-532 85 c-7
-7 -12 -20 -12 -30 0 -27 -22 -68 -36 -68 -25 0 -73 -125 -52 -132 8 -3 8 -10
1 -23 -6 -11 -14 -51 -18 -90 -4 -38 -15 -112 -26 -164 -10 -51 -19 -126 -19
-167 0 -48 -4 -74 -11 -74 -15 0 -7 236 10 305 7 28 17 65 22 84 4 19 4 41 0
49 -8 14 -23 -25 -51 -133 -13 -51 -33 -84 -25 -40 6 31 16 70 35 145 7 25 32
92 57 150 25 58 51 125 58 150 10 36 14 41 20 26 5 -11 3 -26 -3 -37 -14 -22
-15 -29 -4 -29 4 0 15 20 25 45 11 25 24 45 30 45 7 0 7 -4 -1 -12z m318 -87
c-7 -45 -17 -79 -23 -78 -13 3 -21 -38 -53 -283 -13 -107 -30 -211 -36 -230
-15 -43 -13 -29 -22 -138 -4 -51 -12 -92 -18 -92 -11 0 -6 82 14 220 11 83 18
139 42 340 17 148 33 245 35 218 0 -10 7 -18 15 -18 10 0 16 19 21 62 6 54 22
93 34 82 2 -2 -2 -39 -9 -83z m-560 49 c0 -5 -4 -10 -10 -10 -5 0 -10 5 -10
10 0 6 5 10 10 10 6 0 10 -4 10 -10z m77 -12 c-4 -13 2 -32 14 -50 l21 -29
-27 -67 c-15 -37 -34 -85 -43 -107 -9 -22 -24 -50 -33 -62 -13 -18 -16 -40
-13 -105 4 -100 3 -97 20 -178 8 -36 14 -78 14 -95 0 -29 0 -29 -15 -8 -9 13
-21 74 -30 150 -8 70 -18 140 -21 156 -7 32 4 89 16 82 11 -7 26 15 34 49 4
16 16 40 26 53 21 27 17 61 -5 43 -7 -6 -18 -25 -25 -43 -7 -18 -18 -45 -26
-62 l-14 -30 0 26 c0 29 36 118 54 134 33 30 47 55 41 74 -3 12 -13 21 -21 21
-19 0 -18 29 1 36 8 4 15 12 15 20 0 8 5 14 11 14 7 0 9 -9 6 -22z m528 -117
c-5 -24 -9 -31 -17 -23 -8 8 -8 15 2 26 8 11 10 30 6 59 -4 24 -3 52 1 63 10
25 17 -77 8 -125z m42 117 c-3 -8 -6 -5 -6 6 -1 11 2 17 5 13 3 -3 4 -12 1
-19z m-140 -40 c-3 -7 -5 -2 -5 12 0 14 2 19 5 13 2 -7 2 -19 0 -25z m-493
-10 c-13 -23 -37 -48 -46 -48 -4 0 -8 9 -8 19 0 16 22 31 58 40 2 1 0 -5 -4
-11z m-84 -48 c-7 -14 -6 -21 4 -27 11 -7 11 -16 1 -55 -6 -26 -10 -50 -7 -53
3 -2 6 -66 8 -142 2 -76 8 -154 13 -173 7 -22 7 -38 1 -44 -7 -7 -10 -3 -10
10 0 10 -5 26 -11 34 -7 11 -9 -2 -4 -45 3 -33 8 -121 10 -195 5 -132 5 -135
-13 -113 -14 15 -21 45 -25 106 -4 46 -11 97 -17 113 -6 16 -17 74 -25 129 -8
55 -17 115 -21 134 -5 26 -4 33 7 29 10 -3 16 -28 19 -80 5 -75 13 -99 28 -84
4 4 7 110 8 235 0 126 4 233 8 239 4 6 13 9 21 6 11 -5 12 -11 5 -24z m386 -7
c-10 -10 -19 5 -10 18 6 11 8 11 12 0 2 -7 1 -15 -2 -18z m-600 -248 c13 -71
14 -108 7 -176 -5 -47 -6 -100 -2 -118 5 -22 3 -34 -5 -37 -8 -3 -11 -17 -8
-35 2 -16 -3 -57 -13 -90 -9 -34 -15 -62 -13 -64 2 -2 19 -7 38 -12 25 -7 36
-15 38 -32 3 -17 8 -21 20 -16 9 4 39 10 65 13 47 5 48 4 37 -19 -10 -22 -133
-99 -159 -99 -16 0 -13 26 4 40 26 22 1 34 -33 16 -35 -18 -78 -21 -87 -6 -4
6 -36 24 -73 40 -50 23 -63 33 -54 42 20 20 13 27 -21 21 -23 -3 -46 2 -82 22
l-50 26 3 157 c3 161 7 196 21 187 5 -2 9 -80 10 -172 1 -91 4 -170 7 -175 3
-5 20 -7 37 -5 32 3 41 22 30 65 -4 18 -8 20 -19 11 -11 -9 -14 -7 -14 11 0
16 4 20 15 16 11 -4 15 2 15 20 0 20 -4 24 -19 19 -19 -6 -20 0 -20 119 -1 74
3 127 9 131 6 4 10 -30 10 -94 0 -61 4 -101 10 -101 11 0 15 45 11 143 -2 40
1 67 7 67 11 0 24 -223 20 -337 -3 -73 2 -90 23 -78 8 6 10 64 6 227 -2 120
-1 221 4 224 5 3 9 -41 10 -98 0 -91 13 -210 19 -183 1 6 1 49 0 96 -1 53 3
89 9 94 13 7 18 -67 13 -194 -2 -37 -4 -42 -17 -31 -13 11 -15 3 -15 -64 0
-44 4 -76 10 -76 6 0 10 14 10 31 0 18 4 28 10 24 6 -4 9 -18 8 -32 -2 -14 2
-28 8 -30 7 -2 10 83 8 282 -1 157 2 288 7 291 5 3 9 -4 9 -15 0 -11 5 -23 10
-26 9 -5 16 62 11 102 -1 6 3 14 9 18 6 4 9 -23 6 -81 -3 -66 -8 -91 -20 -99
-16 -13 -21 -69 -10 -112 10 -38 22 -16 19 37 -2 28 1 52 5 55 9 5 20 -71 19
-129 0 -37 -17 -98 -18 -68 -2 25 -19 11 -24 -20 -4 -32 8 -52 25 -42 4 3 8
-6 8 -20 0 -14 -3 -25 -7 -25 -29 5 -33 -4 -33 -63 0 -35 4 -68 8 -75 11 -18
59 -27 67 -12 9 13 8 248 0 542 -5 153 -3 178 10 183 8 4 16 14 16 23 1 9 5
-20 10 -64 4 -44 16 -120 25 -170z m589 206 c-3 -10 -12 -48 -19 -85 -8 -37
-20 -74 -28 -83 -9 -12 -10 -15 0 -9 8 5 12 0 12 -13 0 -34 -32 -175 -43 -186
-6 -6 -7 1 -3 20 15 74 18 100 7 85 -17 -24 -20 -7 -6 33 7 21 16 71 20 110 7
80 31 147 52 147 9 0 12 -6 8 -19z m645 9 c0 -5 -5 -10 -11 -10 -5 0 -7 5 -4
10 3 6 8 10 11 10 2 0 4 -4 4 -10z m-403 -62 c-3 -7 -5 -2 -5 12 0 14 2 19 5
13 2 -7 2 -19 0 -25z m2 -128 c-6 -25 -14 -83 -19 -130 -15 -141 -21 -170 -34
-170 -14 0 -10 37 20 215 23 137 25 148 34 138 5 -4 4 -28 -1 -53z m-783 19
c3 -6 1 -15 -6 -19 -6 -4 -11 -10 -11 -14 1 -3 -2 -6 -6 -6 -5 0 -9 11 -11 25
-3 26 20 36 34 14z m548 -48 c-3 -28 -10 -48 -15 -45 -5 3 -7 16 -4 30 3 13 7
36 10 50 10 45 16 19 9 -35z m626 38 c0 -5 -4 -9 -10 -9 -5 0 -10 7 -10 16 0
8 5 12 10 9 6 -3 10 -10 10 -16z m-2550 -44 c0 -8 -4 -15 -9 -15 -5 0 -11 7
-15 15 -3 9 0 15 9 15 8 0 15 -7 15 -15z m1149 -50 c-1 -30 -6 -55 -10 -55 -5
0 -7 17 -5 38 2 20 4 45 5 55 0 9 3 17 7 17 3 0 4 -25 3 -55z m1040 28 c0 -10
-6 -47 -14 -83 l-13 -65 -1 67 c-1 36 2 73 5 82 8 21 24 20 23 -1z m-2206 -34
c27 -27 28 -31 9 -25 -12 4 -22 4 -22 -1 0 -8 -47 -33 -63 -33 -15 0 25 88 41
90 2 0 18 -14 35 -31z m1436 -209 c1 -69 6 -154 11 -190 5 -39 6 -68 0 -74
-20 -20 -41 96 -42 225 0 37 -4 88 -9 115 -22 122 -21 117 -5 111 8 -3 19 -1
23 6 12 19 21 -58 22 -193z m405 163 c-1 -16 -7 -41 -13 -56 -6 -16 -11 -49
-11 -75 0 -30 -3 -43 -10 -36 -13 13 18 194 34 194 1 0 1 -12 0 -27z m71 -49
c-3 -30 -11 -54 -16 -54 -10 0 -5 70 8 115 10 35 16 -3 8 -61z m-149 -6 c-3
-29 -6 -56 -6 -60 0 -5 -5 -8 -11 -8 -6 0 -8 12 -5 30 3 17 9 44 12 60 9 49
17 34 10 -22z m31 20 c-3 -7 -5 -2 -5 12 0 14 2 19 5 13 2 -7 2 -19 0 -25z
m-868 -179 c0 -144 -2 -160 -17 -157 -31 6 -16 318 14 318 3 0 4 -72 3 -161z
m926 64 c-3 -25 -9 -43 -12 -40 -2 3 -1 32 3 64 4 32 10 50 12 39 2 -10 1 -38
-3 -63z m325 -3 l-7 -45 -2 55 c0 32 3 50 8 45 5 -6 5 -30 1 -55z m-295 -50
c-30 -151 -35 -174 -39 -177 -8 -8 -15 53 -12 102 5 67 4 65 21 59 10 -4 15 0
15 14 0 20 20 75 26 70 1 -2 -4 -32 -11 -68z m-276 -107 c1 -35 -3 -63 -7 -63
-4 0 -9 34 -10 76 -1 42 -6 83 -11 91 -5 9 -6 25 -3 37 9 31 30 -64 31 -141z
m518 -40 c-5 -150 -16 -198 -40 -174 -12 12 -19 139 -8 146 5 2 12 31 15 62
12 110 18 133 28 127 7 -5 9 -59 5 -161z m-1267 75 c0 -57 -3 -78 -10 -68 -13
20 -13 150 0 150 6 0 10 -34 10 -82z m1397 60 c-3 -8 -6 -5 -6 6 -1 11 2 17 5
13 3 -3 4 -12 1 -19z m-450 -65 c-2 -16 -4 -3 -4 27 0 30 2 43 4 28 2 -16 2
-40 0 -55z m-67 21 c0 -8 -5 -12 -10 -9 -6 4 -8 11 -5 16 9 14 15 11 15 -7z
m-938 -67 c0 -42 3 -46 41 -63 53 -24 57 -40 12 -48 -19 -3 -50 -9 -67 -12
-20 -3 -48 1 -71 11 -33 13 -36 18 -27 35 12 23 47 43 59 35 17 -10 39 6 34
25 -6 21 5 75 13 68 2 -3 5 -26 6 -51z m378 43 c0 -5 -4 -10 -10 -10 -5 0 -10
5 -10 10 0 6 5 10 10 10 6 0 10 -4 10 -10z m1089 -134 c-6 -44 -15 -110 -19
-146 l-7 -65 -1 80 c-1 44 5 107 13 140 8 33 15 76 16 95 2 32 2 33 6 6 3 -16
-1 -65 -8 -110z m-554 21 c3 -46 2 -77 -4 -77 -12 0 -17 57 -12 118 5 62 11
47 16 -41z m92 11 c-3 -7 -5 -2 -5 12 0 14 2 19 5 13 2 -7 2 -19 0 -25z m-169
-26 c2 -7 -3 -12 -12 -12 -9 0 -16 7 -16 16 0 17 22 14 28 -4z m209 -29 c-3
-10 -5 -2 -5 17 0 19 2 27 5 18 2 -10 2 -26 0 -35z m-37 -47 c-7 -7 -10 6 -9
40 l1 49 9 -39 c6 -26 6 -43 -1 -50z m72 62 c-7 -7 -12 -8 -12 -2 0 14 12 26
19 19 2 -3 -1 -11 -7 -17z m168 -14 c0 -25 -15 -33 -23 -11 -6 18 4 48 14 41
5 -3 9 -16 9 -30z m-80 -34 c0 -5 -6 -10 -14 -10 -8 0 -18 5 -21 10 -3 6 3 10
14 10 12 0 21 -4 21 -10z m-30 -28 c0 -10 -22 -32 -32 -32 -5 0 -3 9 4 20 13
20 28 27 28 12z m395 -24 c3 -13 5 -54 3 -93 -2 -54 -7 -73 -21 -84 -26 -19
-32 -7 -19 38 7 21 12 66 12 100 0 60 14 82 25 39z m-1721 -8 c-22 -9 -29 -6
-20 9 4 6 14 7 23 4 15 -6 14 -7 -3 -13z m1366 16 c0 -3 -4 -8 -10 -11 -5 -3
-10 -1 -10 4 0 6 5 11 10 11 6 0 10 -2 10 -4z m186 -33 c-11 -11 -19 6 -11 24
8 17 8 17 12 0 3 -10 2 -21 -1 -24z m-56 -12 c0 -19 -12 -41 -20 -36 -10 6 -1
45 11 45 5 0 9 -4 9 -9z m-1357 -18 c-7 -2 -19 -2 -25 0 -7 3 -2 5 12 5 14 0
19 -2 13 -5z m346 1 c45 -9 40 -34 -7 -34 -26 0 -41 6 -50 20 -11 17 -10 20 7
20 10 0 33 -3 50 -6z m1091 -43 c0 -6 -4 -13 -10 -16 -5 -3 -10 1 -10 9 0 9 5
16 10 16 6 0 10 -4 10 -9z m-974 -65 c19 -15 18 -16 -9 -43 -22 -23 -29 -25
-36 -14 -5 8 -7 20 -4 28 3 7 0 13 -7 13 -10 0 -10 3 0 15 16 19 31 19 56 1z
m-1818 -24 c2 -7 -2 -10 -12 -6 -9 3 -16 11 -16 16 0 13 23 5 28 -10z m2060
-6 c-10 -7 -18 -17 -18 -22 -1 -12 -50 -72 -50 -61 0 21 54 97 68 97 15 -1 15
-2 0 -14z m724 -3 c6 -30 -4 -63 -19 -63 -10 0 -12 6 -7 23 4 12 8 30 8 40 0
9 3 17 7 17 4 0 9 -8 11 -17z m-882 -30 c0 -5 -13 -17 -27 -27 l-27 -20 20 27
c18 26 34 35 34 20z m-675 -88 c7 -17 8 -35 3 -42 -5 -7 -4 -13 4 -16 9 -3 7
-9 -7 -21 -11 -8 -23 -16 -26 -16 -8 0 -21 109 -14 121 11 16 29 4 40 -26z
m1535 -102 c0 -10 -3 -42 -6 -70 l-7 -53 -36 0 c-35 1 -36 1 -12 14 17 10 20
15 10 18 -11 4 -12 9 -1 27 6 11 12 29 12 39 0 19 18 42 32 42 4 0 8 -8 8 -17z
m-343 -45 c-3 -7 -5 -2 -5 12 0 14 2 19 5 13 2 -7 2 -19 0 -25z m23 -48 l0
-60 -42 0 c-38 1 -41 2 -26 14 10 7 15 16 11 19 -3 4 -1 7 5 7 5 0 12 -6 15
-12 7 -20 21 -1 23 30 3 56 4 62 9 62 3 0 5 -27 5 -60z m207 3 c-3 -10 -5 -4
-5 12 0 17 2 24 5 18 2 -7 2 -21 0 -30z m-243 -5 c-3 -4 -11 -8 -17 -7 -9 0
-9 2 0 5 7 3 9 13 6 22 -4 14 -3 14 5 2 6 -8 8 -18 6 -22z m-1127 -69 c3 -51
1 -57 -21 -67 -30 -13 -36 -2 -36 68 0 38 4 50 18 53 31 8 36 1 39 -54z m1058
23 c-3 -3 -11 0 -18 7 -9 10 -8 11 6 5 10 -3 15 -9 12 -12z m839 -7 c9 -14 13
-25 8 -25 -5 0 -14 11 -20 25 -6 14 -10 25 -8 25 2 0 11 -11 20 -25z m-1388
-70 c4 -8 -1 -32 -9 -52 -9 -21 -16 -32 -16 -25 -1 7 4 22 9 33 8 13 7 25 0
39 -8 14 -8 20 0 20 6 0 13 -7 16 -15z m878 -117 c-2 -18 -4 -54 -5 -80 -1
-40 -5 -48 -21 -48 -18 0 -19 7 -17 73 1 39 7 75 13 79 23 16 33 7 30 -24z
m36 22 c0 -5 -2 -10 -4 -10 -3 0 -8 5 -11 10 -3 6 -1 10 4 10 6 0 11 -4 11
-10z m-940 -14 c0 -3 -4 -8 -10 -11 -5 -3 -10 -1 -10 4 0 6 5 11 10 11 6 0 10
-2 10 -4z m533 -38 l-2 -43 17 37 c16 36 51 56 38 22 -3 -9 -6 -21 -6 -27 0
-8 -4 -7 -9 2 -6 10 -11 5 -16 -18 -4 -18 -5 -35 -2 -37 11 -11 87 20 88 35 0
12 3 11 10 -4 7 -16 8 -12 6 18 -2 20 0 37 4 37 10 0 15 -54 10 -107 l-3 -43
-79 0 -79 0 1 38 c1 29 2 32 7 14 4 -13 12 -22 17 -20 14 4 8 39 -11 59 -11
12 -14 27 -9 48 10 45 21 38 18 -11z m-995 9 c6 -7 12 -29 14 -48 1 -19 7 -37
13 -41 5 -4 -1 -8 -15 -8 -14 0 -35 -7 -46 -15 -28 -19 -34 -11 -34 46 0 65
39 102 68 66z m1397 -25 c-5 -14 -7 -14 -15 -2 -5 9 -4 20 3 28 14 17 22 0 12
-26z m-965 -4 c0 -5 -4 -8 -10 -8 -5 0 -10 10 -10 23 0 18 2 19 10 7 5 -8 10
-18 10 -22z m1390 -28 c0 -5 -2 -10 -4 -10 -3 0 -8 5 -11 10 -3 6 -1 10 4 10
6 0 11 -4 11 -10z m-1035 -40 c-3 -5 -10 -10 -16 -10 -5 0 -9 5 -9 10 0 6 7
10 16 10 8 0 12 -4 9 -10z m1005 -39 c0 -6 -4 -13 -10 -16 -5 -3 -10 1 -10 9
0 9 5 16 10 16 6 0 10 -4 10 -9z m70 -41 c0 -5 -5 -10 -11 -10 -5 0 -7 5 -4
10 3 6 8 10 11 10 2 0 4 -4 4 -10z"/>
<path d="M4694 2416 c-6 -17 2 -36 17 -36 12 0 12 37 -1 45 -6 3 -13 -1 -16
-9z"/>
<path d="M4766 2398 c1 -18 3 -35 4 -38 0 -3 5 2 10 10 14 22 12 60 -4 60 -9
0 -13 -10 -10 -32z"/>
<path d="M4725 2349 c-4 -6 -5 -13 -2 -16 7 -7 27 6 27 18 0 12 -17 12 -25 -2z"/>
<path d="M4647 2303 c-4 -3 -7 -11 -7 -17 0 -6 5 -5 12 2 6 6 9 14 7 17 -3 3
-9 2 -12 -2z"/>
<path d="M4701 2279 c-13 -11 -21 -22 -18 -25 6 -7 56 27 57 39 0 12 -14 7
-39 -14z"/>
<path d="M4981 2344 c0 -11 3 -14 6 -6 3 7 2 16 -1 19 -3 4 -6 -2 -5 -13z"/>
<path d="M4267 1474 c-4 -4 -7 -14 -7 -23 0 -11 3 -12 11 -4 6 6 10 16 7 23
-2 6 -7 8 -11 4z"/>
<path d="M4341 1454 c0 -11 3 -14 6 -6 3 7 2 16 -1 19 -3 4 -6 -2 -5 -13z"/>
<path d="M4807 175 c-4 -8 -15 -12 -26 -10 -11 2 -22 -2 -25 -10 -7 -20 2 -24
34 -15 16 5 38 6 50 3 11 -3 20 0 20 6 0 6 -4 11 -10 11 -5 0 -10 5 -10 11 0
5 5 7 10 4 6 -3 10 -1 10 4 0 17 -47 13 -53 -4z"/>
<path d="M3151 5608 c11 -59 11 -80 -1 -73 -5 3 -10 19 -10 36 0 16 -4 29 -10
29 -5 0 -10 -17 -10 -37 -1 -36 -2 -37 -15 -19 -14 19 -15 18 -15 -15 0 -36
12 -63 25 -57 4 1 17 -13 27 -33 15 -30 17 -44 9 -78 -5 -23 -5 -43 -1 -46 12
-8 19 33 19 128 1 49 4 99 7 113 9 34 -4 94 -20 94 -10 0 -11 -10 -5 -42z m9
-97 c0 -6 -4 -13 -10 -16 -5 -3 -10 1 -10 9 0 9 5 16 10 16 6 0 10 -4 10 -9z"/>
<path d="M3208 5643 c7 -3 16 -2 19 1 4 3 -2 6 -13 5 -11 0 -14 -3 -6 -6z"/>
<path d="M3484 5583 c7 -83 16 -94 16 -20 0 30 3 62 6 71 4 11 1 16 -11 16
-15 0 -16 -8 -11 -67z"/>
<path d="M3966 5635 c-13 -35 -6 -242 9 -271 13 -26 15 -27 15 -7 0 12 5 25
11 29 7 4 8 22 4 48 -3 22 -7 76 -8 118 -2 76 -17 117 -31 83z"/>
<path d="M4023 5438 c-1 -208 6 -263 29 -240 10 10 15 241 8 390 -3 49 -7 62
-20 62 -14 0 -16 -23 -17 -212z"/>
<path d="M4085 5629 c-7 -20 3 -290 10 -297 2 -2 10 10 19 26 12 23 13 37 5
63 -13 42 -19 178 -9 184 10 6 1 45 -10 45 -5 0 -12 -9 -15 -21z"/>
<path d="M4132 5580 c5 -61 9 -73 32 -91 24 -19 26 -25 25 -102 -1 -67 -3 -75
-9 -47 -5 19 -6 45 -3 57 3 14 -4 36 -17 58 -12 19 -22 35 -23 35 -7 0 -2
-200 5 -200 4 0 8 8 8 17 0 14 3 13 16 -5 12 -18 15 -49 13 -160 -2 -177 -1
-204 10 -197 6 3 8 23 5 44 -2 21 2 85 10 142 8 57 12 118 9 135 -3 18 0 35 6
38 6 4 11 18 11 32 0 13 5 24 10 24 6 0 10 12 9 28 0 23 -2 24 -8 7 -8 -19 -8
-19 -20 3 -7 13 -9 36 -5 58 5 28 3 38 -12 49 -10 7 -22 11 -25 9 -11 -6 -31
93 -24 115 5 16 2 21 -11 21 -15 0 -16 -9 -12 -70z"/>
<path d="M4180 5611 c0 -22 4 -42 9 -45 5 -4 9 14 9 39 -1 25 -5 45 -10 45 -4
0 -8 -18 -8 -39z"/>
<path d="M4841 5588 c7 -60 26 -124 30 -103 0 6 2 45 3 88 2 72 1 77 -19 77
-20 0 -21 -3 -14 -62z"/>
<path d="M4935 5640 c-4 -6 -1 -17 5 -25 7 -8 9 -23 5 -32 -6 -17 -7 -17 -21
1 -7 11 -17 16 -21 11 -5 -4 -2 -10 5 -12 6 -3 12 -11 12 -18 0 -7 7 -15 15
-19 8 -3 15 -15 15 -26 0 -11 4 -20 10 -20 11 0 16 22 24 98 5 50 4 52 -19 52
-13 0 -27 -5 -30 -10z"/>
<path d="M5057 5643 c-4 -6 -2 -103 2 -157 1 -6 5 -6 11 0 14 14 16 142 3 155
-6 6 -13 7 -16 2z"/>
<path d="M5253 5478 c3 -118 0 -187 -9 -220 -13 -52 -6 -66 26 -46 21 13 28
54 9 60 -7 2 -7 12 0 31 12 30 15 264 5 316 -4 17 -13 31 -20 31 -12 0 -14
-29 -11 -172z"/>
<path d="M5401 5634 c0 -11 3 -14 6 -6 3 7 2 16 -1 19 -3 4 -6 -2 -5 -13z"/>
<path d="M5448 5643 c-2 -5 -2 -35 -1 -68 1 -33 4 -105 6 -160 3 -73 0 -106
-10 -123 -8 -12 -13 -44 -13 -70 1 -26 1 -59 1 -74 0 -18 4 -25 13 -22 23 9
27 -25 6 -46 -12 -12 -20 -33 -20 -52 1 -30 2 -31 12 -13 11 19 12 18 20 -10
4 -17 3 -34 -2 -39 -6 -6 -10 -19 -10 -29 0 -12 -5 -17 -13 -14 -11 4 -11 -7
-3 -57 5 -33 9 -103 9 -154 0 -65 3 -92 11 -89 7 2 12 35 13 83 1 43 2 96 2
117 1 21 5 36 10 33 5 -4 9 54 8 139 -1 80 -5 145 -9 145 -5 0 -8 18 -8 41 0
26 4 38 11 34 7 -5 8 24 3 99 -6 89 -4 106 7 101 19 -7 20 178 2 196 -7 7 -13
19 -13 26 0 14 -27 18 -32 6z m42 -96 c0 -14 -6 -24 -15 -24 -8 0 -15 7 -15
14 0 8 5 11 10 8 6 -3 10 1 10 9 0 9 2 16 5 16 3 0 5 -10 5 -23z"/>
<path d="M5537 5618 c4 -18 7 -42 6 -53 -1 -18 -2 -127 -2 -179 0 -31 -25 -40
-29 -11 -5 38 -22 30 -22 -11 0 -19 4 -33 9 -30 14 9 21 -20 21 -85 0 -35 -4
-59 -11 -59 -5 0 -7 -5 -3 -12 4 -6 9 -84 10 -172 2 -89 6 -189 8 -223 3 -35
1 -65 -3 -67 -4 -3 1 -38 11 -78 14 -54 18 -104 17 -193 -1 -66 1 -119 5 -117
3 1 12 2 20 2 19 0 19 75 0 91 -15 12 -19 39 -6 39 4 0 13 -5 20 -12 9 -9 11
-4 9 20 -2 25 -6 31 -19 26 -12 -3 -18 0 -18 10 0 9 7 16 15 16 11 0 14 11 13
40 -1 23 -5 43 -10 46 -4 3 -8 58 -9 122 0 64 -3 135 -7 156 -4 22 -3 96 1
165 5 84 4 152 -4 202 -9 66 -9 80 5 108 9 17 21 29 26 26 14 -9 12 39 -1 52
-7 7 -11 51 -10 112 0 101 0 101 -24 101 -22 0 -24 -3 -18 -32z"/>
<path d="M5619 5648 c0 -2 -3 -41 -5 -87 -4 -62 -1 -95 11 -124 15 -37 15 -42
-3 -81 -17 -35 -20 -69 -23 -231 -2 -105 0 -262 5 -350 4 -88 8 -179 9 -202 1
-45 3 -48 25 -34 11 7 12 35 7 137 -7 154 -7 515 1 782 5 170 3 192 -10 192
-9 0 -16 -1 -17 -2z"/>
<path d="M4632 5585 c0 -55 1 -57 9 -27 7 22 7 43 0 60 -8 23 -9 17 -9 -33z"/>
<path d="M2817 5593 c9 -58 23 -64 23 -10 0 34 -4 47 -14 47 -11 0 -13 -9 -9
-37z"/>
<path d="M1907 5590 c3 -11 7 -20 9 -20 2 0 4 9 4 20 0 11 -4 20 -9 20 -5 0
-7 -9 -4 -20z"/>
<path d="M2109 5560 c-3 -30 -2 -59 2 -63 9 -12 16 51 8 88 -4 25 -6 21 -10
-25z"/>
<path d="M2320 5571 c0 -23 5 -41 10 -41 6 0 10 15 10 34 0 19 -4 38 -10 41
-6 4 -10 -10 -10 -34z"/>
<path d="M101 5584 c0 -11 3 -14 6 -6 3 7 2 16 -1 19 -3 4 -6 -2 -5 -13z"/>
<path d="M2872 5580 c0 -14 2 -19 5 -12 2 6 2 18 0 25 -3 6 -5 1 -5 -13z"/>
<path d="M5010 5590 c0 -5 5 -10 11 -10 5 0 7 5 4 10 -3 6 -8 10 -11 10 -2 0
-4 -4 -4 -10z"/>
<path d="M5399 5561 c-6 -36 3 -102 12 -86 3 6 3 35 0 65 -6 50 -7 52 -12 21z"/>
<path d="M1556 5563 c-10 -38 -17 -148 -7 -133 10 17 26 150 18 150 -3 0 -8
-8 -11 -17z"/>
<path d="M1740 5558 c0 -7 -7 -56 -15 -108 -8 -57 -11 -98 -5 -104 11 -11 16
13 27 132 4 50 5 92 1 92 -5 0 -8 -6 -8 -12z"/>
<path d="M2266 5513 c-4 -31 -2 -61 3 -66 5 -5 9 17 10 57 0 36 -1 66 -3 66
-2 0 -6 -26 -10 -57z"/>
<path d="M2550 5550 c0 -19 3 -21 12 -12 9 9 9 15 0 24 -9 9 -12 7 -12 -12z"/>
<path d="M4687 5553 c-10 -16 -12 -115 -3 -173 6 -35 5 -41 -4 -27 -6 9 -15
17 -20 17 -15 0 -12 -27 5 -44 8 -8 15 -23 15 -33 0 -11 7 -28 15 -39 13 -17
14 -7 14 101 -1 134 -10 217 -22 198z"/>
<path d="M1900 5510 c0 -19 3 -21 12 -12 9 9 9 15 0 24 -9 9 -12 7 -12 -12z"/>
<path d="M2871 5514 c0 -11 3 -14 6 -6 3 7 2 16 -1 19 -3 4 -6 -2 -5 -13z"/>
<path d="M1661 5504 c0 -11 3 -14 6 -6 3 7 2 16 -1 19 -3 4 -6 -2 -5 -13z"/>
<path d="M5007 5490 c-3 -11 0 -37 6 -58 l12 -37 3 49 c3 51 -11 83 -21 46z"/>
<path d="M2305 5444 c-6 -49 -2 -76 9 -63 8 9 14 119 6 119 -4 0 -11 -25 -15
-56z"/>
<path d="M4619 5493 c-1 -4 0 -21 1 -36 1 -15 -4 -35 -10 -43 -7 -7 -8 -14 -3
-14 12 0 33 44 33 70 0 18 -19 39 -21 23z"/>
<path d="M4886 5484 c-7 -18 1 -37 13 -29 11 6 21 -274 12 -317 l-8 -33 -7 43
c-8 41 -18 52 -31 32 -4 -6 0 -22 9 -35 9 -13 16 -31 16 -40 0 -9 4 -14 9 -11
5 3 11 -8 13 -25 3 -16 1 -32 -4 -35 -4 -3 -8 4 -8 15 0 12 -4 21 -8 21 -14 0
-23 -253 -10 -261 22 -14 35 19 51 131 15 102 17 142 16 280 0 19 6 76 12 126
9 67 9 95 1 110 -10 17 -12 16 -13 -11 l-1 -30 -8 28 c-15 51 -42 71 -54 41z"/>
<path d="M1397 5484 c-4 -4 -6 -41 -6 -83 l2 -76 8 75 c9 78 9 96 -4 84z"/>
<path d="M2549 5417 c-2 -44 -1 -81 4 -84 4 -2 7 4 8 14 0 10 2 36 5 59 3 22
0 51 -5 65 -7 19 -10 7 -12 -54z"/>
<path d="M2092 5410 c-1 -66 11 -71 21 -8 3 22 0 43 -7 54 -11 15 -13 8 -14
-46z"/>
<path d="M1661 5435 c-1 -11 -4 -31 -6 -45 l-6 -25 11 25 c6 13 9 33 7 45 -4
19 -4 19 -6 0z"/>
<path d="M5391 5434 c0 -11 3 -14 6 -6 3 7 2 16 -1 19 -3 4 -6 -2 -5 -13z"/>
<path d="M2213 5385 c0 -22 2 -30 4 -17 2 12 2 30 0 40 -3 9 -5 -1 -4 -23z"/>
<path d="M1592 5385 c0 -16 2 -22 5 -12 2 9 2 23 0 30 -3 6 -5 -1 -5 -18z"/>
<path d="M33 5355 c0 -22 2 -30 4 -17 2 12 2 30 0 40 -3 9 -5 -1 -4 -23z"/>
<path d="M5010 5369 c0 -11 5 -17 10 -14 6 3 10 13 10 21 0 8 -4 14 -10 14 -5
0 -10 -9 -10 -21z"/>
<path d="M4561 5348 c0 -13 4 -32 9 -43 7 -15 9 -10 9 23 1 23 -3 42 -9 42 -5
0 -10 -10 -9 -22z"/>
<path d="M5398 5345 c2 -14 6 -25 8 -25 2 0 4 11 4 25 0 14 -4 25 -9 25 -4 0
-6 -11 -3 -25z"/>
<path d="M2032 5328 c-7 -13 -13 -38 -14 -56 -1 -19 -6 -36 -10 -38 -12 -8
-10 -44 2 -44 6 0 13 7 15 15 3 8 8 23 12 33 6 15 13 112 8 112 -1 0 -7 -10
-13 -22z"/>
<path d="M1627 5278 c-9 -68 -9 -173 -1 -165 10 9 23 201 14 210 -4 4 -10 -16
-13 -45z"/>
<path d="M2091 5308 c-1 -16 4 -28 9 -28 12 0 12 8 0 35 -8 18 -9 17 -9 -7z"/>
<path d="M1493 5280 c0 -25 2 -35 4 -22 2 12 2 32 0 45 -2 12 -4 2 -4 -23z"/>
<path d="M2831 5304 c0 -11 3 -14 6 -6 3 7 2 16 -1 19 -3 4 -6 -2 -5 -13z"/>
<path d="M1886 5284 c-7 -26 -1 -44 15 -44 12 0 12 57 0 64 -5 3 -12 -6 -15
-20z"/>
<path d="M2551 5294 c0 -11 3 -14 6 -6 3 7 2 16 -1 19 -3 4 -6 -2 -5 -13z"/>
<path d="M1952 5284 c4 -21 22 -23 26 -1 2 10 -3 17 -13 17 -10 0 -15 -6 -13
-16z"/>
<path d="M3100 5291 c0 -5 7 -12 16 -15 14 -5 15 -4 4 9 -14 17 -20 19 -20 6z"/>
<path d="M5403 5265 c0 -22 2 -30 4 -17 2 12 2 30 0 40 -3 9 -5 -1 -4 -23z"/>
<path d="M2521 5264 c0 -11 3 -14 6 -6 3 7 2 16 -1 19 -3 4 -6 -2 -5 -13z"/>
<path d="M1374 5256 c-3 -8 -1 -23 5 -33 9 -15 10 -13 11 15 0 34 -7 42 -16
18z"/>
<path d="M2436 5262 c-3 -5 -1 -22 4 -38 8 -29 8 -29 9 9 1 36 -3 45 -13 29z"/>
<path d="M4521 5254 c0 -11 3 -14 6 -6 3 7 2 16 -1 19 -3 4 -6 -2 -5 -13z"/>
<path d="M4571 5254 c0 -11 3 -14 6 -6 3 7 2 16 -1 19 -3 4 -6 -2 -5 -13z"/>
<path d="M4600 5259 c0 -5 5 -7 10 -4 6 3 10 8 10 11 0 2 -4 4 -10 4 -5 0 -10
-5 -10 -11z"/>
<path d="M27 5216 c-4 -15 -6 -31 -2 -34 10 -10 16 6 13 35 l-3 28 -8 -29z"/>
<path d="M4140 5221 c-16 -31 -14 -181 4 -221 15 -34 15 -30 16 103 0 75 -2
137 -5 137 -2 0 -9 -9 -15 -19z"/>
<path d="M1910 5213 c0 -5 5 -15 10 -23 8 -12 10 -11 10 8 0 12 -4 22 -10 22
-5 0 -10 -3 -10 -7z"/>
<path d="M2142 5185 c0 -16 2 -22 5 -12 2 9 2 23 0 30 -3 6 -5 -1 -5 -18z"/>
<path d="M2041 5154 c0 -11 3 -14 6 -6 3 7 2 16 -1 19 -3 4 -6 -2 -5 -13z"/>
<path d="M1810 5148 c0 -7 7 -31 16 -53 15 -39 15 -39 9 -6 -3 18 -5 42 -5 52
0 11 -4 19 -10 19 -5 0 -10 -6 -10 -12z"/>
<path d="M2193 5125 c0 -22 2 -30 4 -17 2 12 2 30 0 40 -3 9 -5 -1 -4 -23z"/>
<path d="M1673 5110 c0 -25 2 -35 4 -22 2 12 2 32 0 45 -2 12 -4 2 -4 -23z"/>
<path d="M5398 5144 c-11 -10 -10 -56 1 -72 7 -11 9 -11 13 0 6 20 -6 81 -14
72z"/>
<path d="M22 5110 c0 -14 2 -19 5 -12 2 6 2 18 0 25 -3 6 -5 1 -5 -13z"/>
<path d="M1230 5123 c0 -5 -5 -45 -11 -89 -6 -49 -7 -94 -1 -119 7 -34 10 -23
16 83 5 68 6 126 2 129 -3 4 -6 2 -6 -4z"/>
<path d="M1518 5094 c-5 -4 -7 -50 -7 -103 l1 -96 9 60 c10 67 8 151 -3 139z"/>
<path d="M1406 5004 c-11 -70 -26 -228 -25 -274 1 -74 15 -9 28 132 7 68 14
130 16 138 3 8 1 21 -4 29 -6 10 -11 2 -15 -25z"/>
<path d="M5396 5018 c-9 -32 1 -85 13 -72 5 5 5 29 2 54 -7 42 -8 43 -15 18z"/>
<path d="M1146 4999 c-7 -22 -25 -199 -26 -258 0 -29 -3 -57 -5 -62 -3 -4 -1
-10 5 -14 5 -3 10 -2 10 3 0 4 7 82 16 171 13 145 13 202 0 160z"/>
<path d="M1543 4795 c-15 -100 -24 -264 -13 -245 4 8 13 71 20 140 15 153 10
221 -7 105z"/>
<path d="M1447 4788 c-3 -29 -9 -75 -13 -103 -4 -27 -4 -47 0 -44 4 4 11 35
16 70 6 35 12 79 15 97 3 17 2 32 -3 32 -5 0 -12 -24 -15 -52z"/>
<path d="M4622 4780 c0 -19 2 -27 5 -17 2 9 2 25 0 35 -3 9 -5 1 -5 -18z"/>
<path d="M4886 4761 c-4 -7 -5 -15 -2 -18 9 -9 19 4 14 18 -4 11 -6 11 -12 0z"/>
<path d="M5479 4618 c-1 -18 -3 -139 -4 -268 -2 -129 -7 -248 -12 -265 -9 -34
-9 -202 2 -322 6 -73 5 -83 -9 -83 -9 0 -16 -4 -16 -10 0 -5 6 -7 13 -4 11 4
15 -37 21 -218 7 -211 29 -479 42 -500 4 -5 8 -58 10 -116 2 -59 6 -136 9
-172 3 -36 8 -121 11 -190 6 -132 15 -159 40 -125 14 18 13 20 -5 23 -24 4
-29 22 -6 22 12 0 14 14 10 78 -2 42 -9 165 -15 272 -6 107 -13 202 -15 210
-19 72 -33 288 -40 625 -2 127 -6 268 -9 315 -12 195 -10 224 12 183 11 -19
16 -91 28 -408 6 -167 8 -181 25 -181 16 0 19 8 19 42 0 25 -6 47 -15 54 -17
14 -20 40 -5 40 6 0 10 -4 10 -10 0 -5 4 -10 9 -10 5 0 9 14 9 30 -1 25 -4 29
-20 25 -12 -4 -18 -1 -18 9 0 9 8 16 18 16 16 0 17 8 10 108 -11 170 -30 286
-47 298 -19 15 -22 44 -25 249 -2 179 -13 302 -27 311 -5 3 -10 -10 -10 -28z
m31 -1382 c0 -3 -4 -8 -10 -11 -5 -3 -10 -1 -10 4 0 6 5 11 10 11 6 0 10 -2
10 -4z"/>
<path d="M1116 4533 c-4 -38 -13 -104 -21 -148 -19 -102 -33 -245 -24 -245 4
0 10 39 13 88 4 48 13 110 21 137 11 40 35 195 35 227 0 5 -4 8 -9 8 -4 0 -11
-30 -15 -67z"/>
<path d="M1428 4541 c-5 -35 -8 -78 -8 -95 1 -26 2 -28 11 -14 5 10 9 53 7 95
l-3 78 -7 -64z"/>
<path d="M5396 4553 c-25 -39 -28 -51 -23 -94 6 -50 -5 -72 -21 -43 -6 10 -12
13 -16 6 -3 -6 -2 -13 4 -17 5 -3 10 -16 11 -28 0 -12 3 -16 6 -9 7 17 23 5
23 -19 0 -10 5 -19 10 -19 6 0 10 3 10 6 0 22 23 154 30 174 5 14 6 39 2 56
l-7 31 -29 -44z"/>
<path d="M1328 4536 c-5 -27 -7 -70 -7 -95 l1 -46 10 55 c5 30 7 73 6 95 l-3
40 -7 -49z"/>
<path d="M292 4500 c0 -14 2 -19 5 -12 2 6 2 18 0 25 -3 6 -5 1 -5 -13z"/>
<path d="M1506 4468 c-5 -31 -6 -63 -3 -70 6 -18 20 73 15 103 -3 15 -7 3 -12
-33z"/>
<path d="M5624 4485 c11 -8 22 -12 25 -9 6 6 -19 24 -34 24 -5 -1 -1 -7 9 -15z"/>
<path d="M5615 4404 c-7 -48 2 -75 12 -36 3 12 9 22 13 22 4 0 7 14 8 30 1 49
-25 36 -33 -16z"/>
<path d="M5440 4409 c0 -5 5 -7 10 -4 6 3 10 8 10 11 0 2 -4 4 -10 4 -5 0 -10
-5 -10 -11z"/>
<path d="M1411 4395 c-1 -11 -4 -31 -6 -45 l-6 -25 11 25 c6 13 9 33 7 45 -4
19 -4 19 -6 0z"/>
<path d="M1585 4359 c-11 -16 -1 -19 13 -3 7 8 8 14 3 14 -5 0 -13 -5 -16 -11z"/>
<path d="M4740 4351 c0 -5 5 -13 10 -16 6 -3 10 -2 10 4 0 5 -4 13 -10 16 -5
3 -10 2 -10 -4z"/>
<path d="M5610 4310 c0 -29 2 -31 18 -19 9 7 18 14 20 15 1 0 -7 9 -18 19 -20
18 -20 17 -20 -15z"/>
<path d="M1392 4290 c0 -14 2 -19 5 -12 2 6 2 18 0 25 -3 6 -5 1 -5 -13z"/>
<path d="M1501 4274 c-12 -47 -34 -265 -27 -272 8 -7 14 16 19 68 3 25 10 87
16 139 12 101 9 127 -8 65z"/>
<path d="M5545 4300 c-3 -5 -1 -10 4 -10 6 0 11 5 11 10 0 6 -2 10 -4 10 -3 0
-8 -4 -11 -10z"/>
<path d="M5570 4285 c0 -7 -6 -18 -14 -22 -9 -5 -12 -19 -9 -39 4 -25 9 -31
24 -27 15 4 19 15 19 54 0 27 -4 49 -10 49 -5 0 -10 -7 -10 -15z"/>
<path d="M5617 4248 c-8 -34 -2 -71 11 -76 7 -2 12 0 13 5 0 4 2 27 4 51 4 46
-18 62 -28 20z"/>
<path d="M1378 4230 c-3 -14 -9 -52 -12 -85 l-6 -60 15 55 c9 30 15 69 13 85
-3 29 -3 29 -10 5z"/>
<path d="M5633 4143 c-18 -7 -16 -20 2 -20 8 0 15 6 15 14 0 7 -1 13 -2 12 -2
0 -9 -3 -15 -6z"/>
<path d="M5554 4118 c-4 -6 0 -16 9 -23 10 -7 17 -19 17 -28 0 -17 18 -33 26
-24 3 3 0 23 -6 46 -10 40 -31 53 -46 29z"/>
<path d="M1420 4080 c0 -11 2 -20 4 -20 2 0 6 9 9 20 3 11 1 20 -4 20 -5 0 -9
-9 -9 -20z"/>
<path d="M5634 4089 c-3 -6 -1 -16 5 -22 8 -8 11 -5 11 11 0 24 -5 28 -16 11z"/>
<path d="M1057 4070 c-3 -14 -11 -59 -17 -100 -6 -41 -15 -88 -20 -105 -17
-63 -21 -90 -12 -80 22 23 69 252 60 291 -4 16 -6 16 -11 -6z"/>
<path d="M1345 4029 c-4 -6 -5 -12 -2 -15 2 -3 7 2 10 11 7 17 1 20 -8 4z"/>
<path d="M1408 4005 c-4 -22 -10 -71 -12 -110 l-6 -70 16 65 c8 36 13 85 12
110 l-3 45 -7 -40z"/>
<path d="M2080 4029 c0 -5 5 -7 10 -4 6 3 10 8 10 11 0 2 -4 4 -10 4 -5 0 -10
-5 -10 -11z"/>
<path d="M5642 4029 c-1 -9 -9 -20 -18 -23 -13 -5 -15 -28 -13 -150 2 -148 6
-170 27 -157 9 6 12 50 9 177 -1 93 -4 162 -5 153z"/>
<path d="M2200 4022 c0 -7 -6 -12 -14 -12 -15 0 -42 -28 -34 -36 3 -3 18 6 33
21 16 14 25 28 22 32 -4 3 -7 1 -7 -5z"/>
<path d="M1381 3784 c0 -11 3 -14 6 -6 3 7 2 16 -1 19 -3 4 -6 -2 -5 -13z"/>
<path d="M1432 3737 c-13 -34 -4 -47 33 -47 15 0 16 3 7 12 -7 7 -12 22 -12
34 0 35 -15 36 -28 1z"/>
<path d="M1366 3723 c-4 -9 -2 -21 4 -27 7 -7 10 -2 10 17 0 31 -5 34 -14 10z"/>
<path d="M5622 3648 c5 -15 28 -23 28 -10 0 5 -7 13 -16 16 -10 4 -14 1 -12
-6z"/>
<path d="M1415 3639 c-4 -5 -4 -21 -1 -35 8 -32 -12 -32 -59 0 -57 39 -74 21
-22 -24 23 -21 49 -49 56 -64 16 -30 42 -34 66 -10 12 12 13 19 4 30 -6 8 -8
21 -5 30 7 18 -13 84 -25 84 -4 0 -11 -5 -14 -11z"/>
<path d="M5634 3612 c-16 -10 -29 -92 -15 -92 6 0 11 6 11 14 0 8 5 16 11 18
6 2 9 18 7 35 -2 21 -7 30 -14 25z"/>
<path d="M5612 3475 c0 -33 2 -36 15 -22 14 14 14 17 0 37 -15 21 -15 21 -15
-15z"/>
<path d="M1107 3479 c-35 -21 -47 -64 -47 -171 l1 -103 27 32 c18 20 32 54 40
92 7 33 16 63 21 65 9 6 -8 96 -18 96 -3 0 -14 -5 -24 -11z"/>
<path d="M5540 3460 c0 -5 5 -10 10 -10 6 0 10 5 10 10 0 6 -4 10 -10 10 -5 0
-10 -4 -10 -10z"/>
<path d="M5570 3445 c0 -7 -6 -18 -14 -22 -21 -12 -9 -63 15 -63 16 0 19 8 19
50 0 28 -4 50 -10 50 -5 0 -10 -7 -10 -15z"/>
<path d="M4892 3420 c0 -14 2 -19 5 -12 2 6 2 18 0 25 -3 6 -5 1 -5 -13z"/>
<path d="M5617 3423 c-11 -10 -8 -81 4 -88 16 -10 20 -1 23 49 2 43 -8 58 -27
39z"/>
<path d="M5631 3306 c-9 -10 -8 -15 4 -20 10 -4 15 1 15 14 0 24 -4 25 -19 6z"/>
<path d="M5556 3281 c-3 -4 4 -25 14 -47 24 -47 26 -74 4 -74 -14 0 -16 -8
-10 -61 4 -34 15 -73 24 -87 14 -21 14 -26 1 -36 -19 -14 -10 -70 12 -74 13
-2 16 4 14 30 -2 18 -6 94 -11 168 -4 74 -8 140 -9 145 -1 6 -3 18 -3 28 -2
17 -27 24 -36 8z"/>
<path d="M5632 3251 c-10 -6 -10 -10 3 -21 13 -11 15 -9 15 9 0 24 0 24 -18
12z"/>
<path d="M2610 3238 c0 -15 -53 -38 -89 -38 -13 0 -35 -8 -49 -19 -15 -10 -50
-21 -79 -25 -28 -4 -68 -13 -88 -22 -37 -15 -39 -34 -4 -34 11 0 29 -5 40 -10
13 -7 19 -7 19 0 0 17 54 11 66 -8 11 -17 136 -106 187 -131 37 -19 37 -58 0
-72 -30 -11 -173 4 -227 24 -16 6 -38 11 -50 12 -12 1 -29 5 -39 10 -15 6 -16
4 -7 -20 5 -14 10 -53 10 -86 0 -51 3 -59 19 -59 11 0 23 -11 30 -28 6 -15 25
-33 41 -41 18 -7 30 -20 30 -31 0 -35 41 -91 71 -97 16 -3 29 -9 29 -14 0 -5
7 -9 15 -9 8 0 22 -12 32 -27 24 -39 53 -63 75 -64 57 -3 68 -2 83 11 15 12
19 12 30 -3 11 -16 13 -16 19 -2 3 9 11 15 18 13 24 -4 56 22 63 52 4 16 12
30 19 30 7 0 25 13 39 30 27 29 34 50 19 50 -9 0 -8 47 1 57 4 3 7 14 7 23 0
29 25 70 43 70 9 0 17 6 17 13 0 8 14 26 31 41 31 28 36 63 7 58 -13 -2 -18
10 -25 50 -5 29 -5 55 -1 56 4 2 8 16 8 31 0 33 -80 127 -132 153 -71 37 -145
60 -210 65 -55 5 -68 3 -68 -9z m-52 -93 c2 -11 11 -25 19 -32 13 -10 14 -17
3 -43 -7 -16 -14 -30 -16 -30 -2 0 -20 8 -41 18 -65 30 -81 68 -40 97 30 21
71 16 75 -10z"/>
<path d="M920 3221 c-5 -11 -10 -29 -10 -40 0 -21 35 -51 60 -51 12 1 12 3 -2
11 -22 12 -23 52 -3 69 8 7 12 16 9 21 -10 16 -43 9 -54 -10z"/>
<path d="M5637 3166 c-5 -21 -6 -41 -3 -44 12 -11 17 7 14 44 l-3 39 -8 -39z"/>
<path d="M1160 3149 c0 -6 -4 -8 -9 -5 -12 8 -21 -19 -28 -85 -8 -84 28 -141
113 -178 56 -25 87 -57 114 -118 20 -47 56 -62 47 -20 -14 66 -34 124 -47 139
-34 37 -40 49 -59 99 -19 47 -19 53 -4 76 16 25 26 83 14 83 -4 0 -11 -4 -17
-10 -9 -9 -33 -4 -101 21 -15 6 -23 5 -23 -2z"/>
<path d="M151 3094 c0 -11 3 -14 6 -6 3 7 2 16 -1 19 -3 4 -6 -2 -5 -13z"/>
<path d="M4916 3058 c9 -70 14 -74 14 -10 0 28 -5 54 -10 57 -8 5 -9 -10 -4
-47z"/>
<path d="M5626 3085 c-3 -8 -1 -15 4 -15 6 0 10 7 10 15 0 8 -2 15 -4 15 -2 0
-6 -7 -10 -15z"/>
<path d="M46 3052 c-2 -4 -1 -14 5 -22 7 -12 9 -10 9 8 0 23 -5 28 -14 14z"/>
<path d="M252 3020 c0 -8 4 -26 8 -40 6 -20 8 -21 8 -5 0 11 -3 29 -8 40 -5
12 -8 14 -8 5z"/>
<path d="M5638 2993 c-2 -5 -1 -28 3 -53 l6 -45 1 53 c2 48 -2 63 -10 45z"/>
<path d="M5595 2869 c-4 -6 1 -16 11 -24 23 -16 28 -13 19 14 -7 23 -20 27
-30 10z"/>
<path d="M43 2833 c20 -59 45 -124 52 -131 15 -14 -8 81 -27 114 -22 37 -34
45 -25 17z"/>
<path d="M5337 2823 c-11 -10 -8 -28 8 -49 13 -18 14 -17 15 19 0 35 -8 46
-23 30z"/>
<path d="M190 2806 c0 -8 5 -27 10 -41 6 -15 15 -59 21 -98 13 -91 18 -106 28
-89 13 22 -33 242 -50 242 -5 0 -9 -6 -9 -14z"/>
<path d="M5594 2801 c3 -5 7 -54 8 -110 1 -63 6 -101 12 -101 15 0 20 124 6
149 -7 14 -7 21 0 21 5 0 10 11 10 25 0 19 -5 25 -21 25 -11 0 -18 -4 -15 -9z"/>
<path d="M372 2755 c0 -16 2 -22 5 -12 2 9 2 23 0 30 -3 6 -5 -1 -5 -18z"/>
<path d="M5371 2724 c0 -11 3 -14 6 -6 3 7 2 16 -1 19 -3 4 -6 -2 -5 -13z"/>
<path d="M392 2660 c0 -48 12 -97 20 -84 4 5 1 35 -7 65 -11 46 -13 49 -13 19z"/>
<path d="M190 2569 c0 -16 4 -28 9 -25 8 5 3 56 -5 56 -2 0 -4 -14 -4 -31z"/>
<path d="M525 2570 c3 -5 8 -10 11 -10 2 0 4 5 4 10 0 6 -5 10 -11 10 -5 0 -7
-4 -4 -10z"/>
<path d="M252 2540 c0 -14 2 -19 5 -12 2 6 2 18 0 25 -3 6 -5 1 -5 -13z"/>
<path d="M5610 2526 c0 -13 7 -29 15 -36 17 -14 20 -3 9 38 -8 29 -24 28 -24
-2z"/>
<path d="M541 2450 c0 -25 4 -52 9 -60 12 -19 12 42 0 80 -7 21 -8 17 -9 -20z"/>
<path d="M1167 2463 c-7 -12 -26 -146 -33 -243 -3 -47 -8 -96 -10 -110 -16
-90 -23 -185 -14 -194 7 -7 10 7 10 40 0 27 5 67 11 89 6 22 17 96 24 165 8
69 18 152 23 185 9 53 3 91 -11 68z"/>
<path d="M5511 2424 c0 -11 3 -14 6 -6 3 7 2 16 -1 19 -3 4 -6 -2 -5 -13z"/>
<path d="M5627 2433 c-10 -10 -8 -271 2 -277 5 -3 11 8 15 25 8 43 8 174 -1
183 -4 4 -6 23 -4 42 3 34 0 40 -12 27z"/>
<path d="M607 2358 c8 -84 13 -86 13 -5 0 37 -4 67 -9 67 -5 0 -7 -28 -4 -62z"/>
<path d="M2663 2364 c10 -11 -34 -83 -64 -105 -16 -11 -29 -26 -29 -33 0 -8
-7 -19 -16 -27 -13 -11 -13 -14 0 -21 16 -9 46 -1 46 13 0 5 12 9 28 9 18 0
40 14 70 44 46 46 48 70 6 80 -15 4 -24 14 -24 26 0 11 -5 20 -12 20 -6 0 -9
-3 -5 -6z"/>
<path d="M5557 2292 c-13 -65 13 -222 35 -222 8 0 13 46 8 65 -2 6 -3 28 -2
50 1 22 -1 59 -4 82 -6 49 -29 65 -37 25z"/>
<path d="M2975 2160 c3 -5 18 -10 33 -9 24 0 25 1 7 9 -28 12 -47 12 -40 0z"/>
<path d="M1216 2043 c-3 -21 -5 -60 -5 -88 1 -48 1 -49 9 -15 12 53 18 140 10
140 -4 0 -10 -17 -14 -37z"/>
<path d="M887 1965 c-4 -38 -6 -99 -6 -135 2 -65 2 -64 14 35 8 55 10 116 6
135 -7 31 -8 28 -14 -35z"/>
<path d="M1066 1949 c-3 -34 -6 -94 -6 -133 0 -113 -8 -143 -39 -154 -15 -5
-34 -16 -42 -24 -21 -20 -87 -60 -123 -73 -52 -19 -125 -69 -126 -86 0 -16
-91 -99 -108 -99 -18 0 -82 -74 -82 -95 0 -28 -47 -125 -60 -125 -6 0 -18 -16
-27 -35 -17 -36 -43 -47 -43 -18 0 9 8 25 17 35 14 16 15 26 5 81 -6 34 -14
106 -18 160 -3 53 -9 97 -13 97 -8 0 -17 -68 -26 -197 -4 -57 -2 -62 21 -78
20 -13 23 -19 14 -30 -7 -8 -22 -17 -33 -21 -12 -4 -35 -17 -52 -30 -35 -28
-33 -26 -81 -81 -21 -26 -45 -43 -58 -43 -26 0 -166 -68 -166 -81 0 -5 16 -9
36 -9 46 0 35 -16 -16 -25 -25 -4 -40 -12 -40 -21 0 -8 6 -14 13 -14 9 0 9 -2
-1 -9 -11 -7 -13 -55 -9 -247 3 -131 9 -263 14 -292 8 -42 7 -55 -4 -59 -8 -3
-13 -22 -13 -53 0 -73 9 -105 33 -115 12 -6 26 -25 32 -43 8 -28 13 -32 45
-32 l35 0 2 117 c3 164 10 231 28 282 17 48 20 101 6 101 -5 0 -22 -20 -38
-45 -32 -50 -49 -60 -86 -46 -30 12 -30 30 4 103 22 46 41 59 54 37 4 -5 12
-8 18 -6 7 2 20 0 30 -5 24 -12 44 5 52 45 21 98 114 235 150 221 19 -8 19
-11 0 -64 -17 -48 -11 -66 11 -36 13 19 14 19 14 -8 0 -23 -3 -26 -21 -21 -37
12 -89 -55 -89 -115 0 -31 5 -33 52 -30 34 2 48 -23 48 -85 0 -35 -5 -51 -24
-68 -17 -16 -25 -36 -28 -77 -5 -46 -2 -60 18 -90 13 -19 24 -41 24 -50 0 -13
-1 -13 -10 0 -14 21 -13 -5 0 -30 13 -24 21 -120 10 -120 -4 0 -28 11 -51 25
-59 33 -88 32 -121 -5 l-26 -30 669 0 c740 0 688 -5 650 65 -10 19 -21 32 -24
28 -10 -9 -25 40 -30 99 -5 52 -24 120 -53 186 -8 18 -14 39 -14 47 0 8 -9 15
-21 15 -11 0 -17 5 -14 10 3 6 1 10 -4 10 -6 0 -11 10 -11 21 0 19 -4 21 -37
14 -21 -4 -40 -10 -43 -15 -9 -13 -68 -40 -88 -40 -35 0 -39 49 -27 383 4 131
3 183 -6 193 -17 21 -5 102 25 168 38 83 93 339 101 471 l5 77 -40 -7 -40 -7
0 37 c0 24 -4 34 -11 29 -6 -3 -9 -19 -7 -35 5 -33 -5 -44 -44 -51 -34 -6 -36
9 -25 170 6 79 6 127 0 133 -7 7 -12 -12 -17 -52z m-626 -923 c0 -35 -25 -88
-56 -116 -15 -14 -32 -37 -39 -52 -10 -24 -13 -26 -29 -15 -9 7 -28 39 -41 72
l-24 59 32 27 c29 26 33 26 45 11 13 -16 12 -30 -3 -79 -9 -28 6 -30 20 -4 59
113 95 151 95 97z m-260 -203 c0 -17 -4 -21 -17 -16 -14 5 -12 0 6 -20 14 -15
30 -27 38 -27 18 0 16 -14 -6 -34 -17 -16 -20 -15 -49 9 -16 14 -35 25 -40 25
-6 0 -13 9 -17 20 -4 14 4 32 27 60 30 35 34 38 46 23 6 -9 12 -27 12 -40z"/>
<path d="M835 1665 c-4 -42 -5 -78 -3 -81 3 -2 8 30 12 72 4 42 5 78 2 81 -2
2 -7 -30 -11 -72z"/>
<path d="M106 1592 c-10 -16 -16 -151 -7 -156 4 -3 11 32 14 77 5 81 4 97 -7
79z"/>
<path d="M281 1584 c0 -11 3 -14 6 -6 3 7 2 16 -1 19 -3 4 -6 -2 -5 -13z"/>
<path d="M411 1574 c0 -11 3 -14 6 -6 3 7 2 16 -1 19 -3 4 -6 -2 -5 -13z"/>
<path d="M92 1380 c0 -14 2 -19 5 -12 2 6 2 18 0 25 -3 6 -5 1 -5 -13z"/>
<path d="M338 1311 c-5 -18 -8 -50 -8 -70 1 -29 3 -33 11 -18 5 9 9 41 7 70
-3 49 -3 50 -10 18z"/>
<path d="M70 1161 c0 -17 5 -31 10 -31 6 0 10 11 10 24 0 14 -4 28 -10 31 -6
4 -10 -7 -10 -24z"/>
<path d="M2004 1144 c3 -9 6 -18 6 -20 0 -7 56 -5 63 3 13 12 -16 33 -45 33
-23 0 -29 -4 -24 -16z"/>
<path d="M23 1093 c-16 -3 -23 -11 -23 -29 0 -22 3 -24 53 -23 28 1 44 3 35 6
-16 4 -16 6 -3 20 28 28 2 38 -62 26z"/>
<path d="M64 444 c3 -9 6 -18 6 -20 0 -2 8 -4 18 -3 10 0 12 3 5 6 -7 2 -13
11 -13 19 0 8 -5 14 -11 14 -6 0 -8 -7 -5 -16z"/>
<path d="M192 365 c-19 -70 -13 -175 9 -175 4 0 21 21 36 47 19 34 29 43 31
30 6 -32 20 -17 31 33 15 68 14 75 -4 60 -8 -7 -15 -20 -15 -29 0 -9 -4 -22
-9 -30 -6 -9 -14 4 -28 45 -11 32 -24 59 -29 61 -5 2 -15 -17 -22 -42z"/>
</g>
</svg>
